<?xml version="1.0" encoding="utf-8"?>
<!-- Generator: Adobe Illustrator 25.4.1, SVG Export Plug-In . SVG Version: 6.00 Build 0)  -->
<svg version="1.1" id="Layer_1" xmlns="http://www.w3.org/2000/svg" xmlns:xlink="http://www.w3.org/1999/xlink" x="0px" y="0px"
	 viewBox="0 0 1667 963" style="enable-background:new 0 0 1667 963;" xml:space="preserve">
<style type="text/css">
	.st0{fill:#0C0C0C;}
	.st1{fill:#FFFFFF;}
</style>
<g>
	<path class="st0" d="M1222.7,487.2v0.5h-14.5v9.1l-59,12l0.5,2.6l7.1-1.4v1.7h-8.1v245.6h-2.6v-2.6h-8.2V532.1h-7.6v5.3h-10v-27.2
		h-2.7v27.2h-9.9v-5.3h-7.6v222.5h-8.2v2.6h-2.6V511.7h-8.1v-1.7l7.1,1.4l0.5-2.6l-59-12v-9.1h-14.5v-0.5h-4.9v302.5h216.8V487.2
		H1222.7z M1207.9,572.7h-4.5v-9.6h4.5V572.7z M1207.9,574.1v9.3h-4.5v-9.3H1207.9z M1207.9,584.8v9.6h-4.5v-9.6H1207.9z
		 M1207.9,595.7v9.3h-4.5v-9.3H1207.9z M1207.9,606.4v9.6h-4.5v-9.6H1207.9z M1207.9,617.3v9.3h-4.5v-9.3H1207.9z M1207.9,627.9v9.6
		h-4.5v-9.6H1207.9z M1207.9,638.9v11h-4.5v-11H1207.9z M1207.9,651.2v9.6h-4.5v-9.6H1207.9z M1207.9,662.2v9.3h-4.5v-9.3H1207.9z
		 M1207.9,672.8v9.6h-4.5v-9.6H1207.9z M1207.9,683.7v8.5h-4.5v-8.5H1207.9z M1207.9,693.6v9.6h-4.5v-9.6H1207.9z M1207.9,704.5v9.3
		h-4.5v-9.3H1207.9z M1207.9,715.2v9.6h-4.5v-9.6H1207.9z M1207.9,726.1v9.6h-4.5v-9.6H1207.9z M1207.9,737v9.6h-4.5V737H1207.9z
		 M1207.9,747.9v9.3h-4.5v-9.3H1207.9z M1207.9,561.8h-4.5v-10.1h4.5V561.8z M1200,550.4v1.3h2.1v10.1h-2.1v1.3h2.1v9.6h-2.1v1.3
		h2.1v9.3h-2.1v1.3h2.1v9.6h-2.1v1.3h2.1v9.3h-2.1v1.3h2.1v9.6h-2.1v1.3h2.1v9.3h-2.1v1.3h2.1v9.6h-2.1v1.3h2.1v11h-2.1v1.3h2.1v9.6
		h-2.1v1.3h2.1v9.3h-2.1v1.3h2.1v9.6h-2.1v1.3h2.1v8.5h-2.1v1.3h2.1v9.6h-2.1v1.3h2.1v9.3h-2.1v1.3h2.1v9.6h-2.1v1.3h2.1v9.6h-2.1
		v1.3h2.1v9.6h-2.1v1.3h2.1v9.3h-31.8v-9.3h2.1v-1.3h-2.1V737h2.1v-1.3h-2.1v-9.6h2.1v-1.3h-2.1v-9.6h2.1v-1.3h-2.1v-9.3h2.1v-1.3
		h-2.1v-9.6h2.1v-1.3h-2.1v-8.5h2.1v-1.3h-2.1v-9.6h2.1v-1.3h-2.1v-9.3h2.1v-1.3h-2.1v-9.6h2.1v-1.3h-2.1v-11h2.1v-1.3h-2.1v-9.6
		h2.1v-1.3h-2.1v-9.3h2.1v-1.3h-2.1v-9.6h2.1V605h-2.1v-9.3h2.1v-1.3h-2.1v-9.6h2.1v-1.3h-2.1v-9.3h2.1v-1.3h-2.1v-9.6h2.1v-1.3
		h-2.1v-10.1h2.1v-1.3h-12.1v-26.9h17.1v28.3h17.5v-28.3h17.1v26.9H1200z M1168.9,551.7v10.1h-4.5v-10.1H1168.9z M1164.3,737h4.5
		v9.6h-4.5V737z M1164.3,735.7v-9.6h4.5v9.6H1164.3z M1164.3,724.8v-9.6h4.5v9.6H1164.3z M1164.3,713.8v-9.3h4.5v9.3H1164.3z
		 M1164.3,703.2v-9.6h4.5v9.6H1164.3z M1164.3,692.3v-8.5h4.5v8.5H1164.3z M1164.3,682.4v-9.6h4.5v9.6H1164.3z M1164.3,671.5v-9.3
		h4.5v9.3H1164.3z M1164.3,660.8v-9.6h4.5v9.6H1164.3z M1164.3,649.9v-11h4.5v11H1164.3z M1164.3,637.5v-9.6h4.5v9.6H1164.3z
		 M1164.3,626.6v-9.3h4.5v9.3H1164.3z M1164.3,615.9v-9.6h4.5v9.6H1164.3z M1164.3,605v-9.3h4.5v9.3H1164.3z M1164.3,594.3v-9.6h4.5
		v9.6H1164.3z M1164.3,583.4v-9.3h4.5v9.3H1164.3z M1164.3,572.7v-9.6h4.5v9.6H1164.3z M1164.3,747.9h4.5v9.3h-4.5V747.9z
		 M1178.7,523.5h14.8v26.9h-14.8V523.5z M1164,520.8V514h44.2v6.8H1164z M1208.2,512.6h-4.2v-12.3l4.2-0.8V512.6z M1159.6,509.4
		l41.7-8.5v11.7H1164v-1h-4.4V509.4z M1150.2,513h12.4v7.7h-3.8v2.7h0.1v28.3h4.1v205.5h-12.8V513z M1207.9,758.6v6.1h-61.6v-6.1
		H1207.9z M1174.8,781.9v-4.4h33.1v4.4H1174.8z M1173.4,766.1v4.4h-107.8v-4.4H1173.4z M1173.4,771.8v4.4h-107.8v-4.4H1173.4z
		 M1063,770.4h-32.4v-4.4h32.4V770.4z M1063,771.8v4.4h-32.4v-4.4H1063z M1063,777.5v4.4h-32.4v-4.4H1063z M1065.7,777.5h107.8v4.4
		h-107.8V777.5z M1174.8,776.2v-4.4h33.1v4.4H1174.8z M1174.8,770.4v-4.4h33.1v4.4H1174.8z M1136.8,552.4v1.6h-35.1v-1.6H1136.8z
		 M1136.8,533.5v16.2h-4.9v-16.2H1136.8z M1117.9,538.8v4.7h2.7v-4.7h10v10.9h-22.6v-10.9H1117.9z M1106.6,533.5v16.2h-4.9v-16.2
		H1106.6z M1101.7,555.3h35.1v199.3h-9.5V559.7h-16v194.9h-9.5V555.3z M1125.9,575.5h-13.3V561h13.3V575.5z M1112.6,578.2h13.3v10.4
		h-13.3V578.2z M1112.6,591.3h13.3v10.4h-13.3V591.3z M1112.6,604.4h13.3v10.4h-13.3V604.4z M1112.6,617.5h13.3v10.4h-13.3V617.5z
		 M1112.6,630.6h13.3V641h-13.3V630.6z M1112.6,643.7h13.3V654h-13.3V643.7z M1112.6,656.7h13.3v10.4h-13.3V656.7z M1112.6,669.8
		h13.3v10.4h-13.3V669.8z M1112.6,682.9h13.3v10.4h-13.3V682.9z M1112.6,696h13.3v10.4h-13.3V696z M1112.6,709.1h13.3v10.4h-13.3
		V709.1z M1112.6,722.2h13.3v10.4h-13.3V722.2z M1112.6,735.3h13.3v10.4h-13.3V735.3z M1112.6,748.3h13.3v6.3h-13.3V748.3z
		 M1145,756v8.8h-51.5V756H1145z M1092.1,764.7h-61.6v-6.1h61.6V764.7z M1026.4,523.5h17.1v28.3h17.5v-28.3h17.1v26.9h-12.1v1.3h2.1
		v10.1h-2.1v1.3h2.1v9.6h-2.1v1.3h2.1v9.3h-2.1v1.3h2.1v9.6h-2.1v1.3h2.1v9.3h-2.1v1.3h2.1v9.6h-2.1v1.3h2.1v9.3h-2.1v1.3h2.1v9.6
		h-2.1v1.3h2.1v11h-2.1v1.3h2.1v9.6h-2.1v1.3h2.1v9.3h-2.1v1.3h2.1v9.6h-2.1v1.3h2.1v8.5h-2.1v1.3h2.1v9.6h-2.1v1.3h2.1v9.3h-2.1
		v1.3h2.1v9.6h-2.1v1.3h2.1v9.6h-2.1v1.3h2.1v9.6h-2.1v1.3h2.1v9.3h-31.8v-9.3h2.1v-1.3h-2.1V737h2.1v-1.3h-2.1v-9.6h2.1v-1.3h-2.1
		v-9.6h2.1v-1.3h-2.1v-9.3h2.1v-1.3h-2.1v-9.6h2.1v-1.3h-2.1v-8.5h2.1v-1.3h-2.1v-9.6h2.1v-1.3h-2.1v-9.3h2.1v-1.3h-2.1v-9.6h2.1
		v-1.3h-2.1v-11h2.1v-1.3h-2.1v-9.6h2.1v-1.3h-2.1v-9.3h2.1v-1.3h-2.1v-9.6h2.1V605h-2.1v-9.3h2.1v-1.3h-2.1v-9.6h2.1v-1.3h-2.1
		v-9.3h2.1v-1.3h-2.1v-9.6h2.1v-1.3h-2.1v-10.1h2.1v-1.3h-12.1V523.5z M1030.2,514h44.2v6.8h-44.2V514z M1044.9,523.5h14.8v26.9
		h-14.8V523.5z M1069.6,757.2v-9.3h4.5v9.3H1069.6z M1074.1,572.7h-4.5v-9.6h4.5V572.7z M1074.1,574.1v9.3h-4.5v-9.3H1074.1z
		 M1074.1,584.8v9.6h-4.5v-9.6H1074.1z M1074.1,595.7v9.3h-4.5v-9.3H1074.1z M1074.1,606.4v9.6h-4.5v-9.6H1074.1z M1074.1,617.3v9.3
		h-4.5v-9.3H1074.1z M1074.1,627.9v9.6h-4.5v-9.6H1074.1z M1074.1,638.9v11h-4.5v-11H1074.1z M1074.1,651.2v9.6h-4.5v-9.6H1074.1z
		 M1074.1,662.2v9.3h-4.5v-9.3H1074.1z M1074.1,672.8v9.6h-4.5v-9.6H1074.1z M1074.1,683.7v8.5h-4.5v-8.5H1074.1z M1074.1,693.6v9.6
		h-4.5v-9.6H1074.1z M1074.1,704.5v9.3h-4.5v-9.3H1074.1z M1074.1,715.2v9.6h-4.5v-9.6H1074.1z M1074.1,726.1v9.6h-4.5v-9.6H1074.1z
		 M1074.1,737v9.6h-4.5V737H1074.1z M1074.1,561.8h-4.5v-10.1h4.5V561.8z M1030.5,563.2h4.5v9.6h-4.5V563.2z M1030.5,574.1h4.5v9.3
		h-4.5V574.1z M1030.5,584.8h4.5v9.6h-4.5V584.8z M1030.5,595.7h4.5v9.3h-4.5V595.7z M1030.5,606.4h4.5v9.6h-4.5V606.4z
		 M1030.5,617.3h4.5v9.3h-4.5V617.3z M1030.5,627.9h4.5v9.6h-4.5V627.9z M1030.5,638.9h4.5v11h-4.5V638.9z M1030.5,651.2h4.5v9.6
		h-4.5V651.2z M1030.5,662.2h4.5v9.3h-4.5V662.2z M1030.5,672.8h4.5v9.6h-4.5V672.8z M1030.5,683.7h4.5v8.5h-4.5V683.7z
		 M1030.5,693.6h4.5v9.6h-4.5V693.6z M1030.5,704.5h4.5v9.3h-4.5V704.5z M1030.5,715.2h4.5v9.6h-4.5V715.2z M1030.5,726.1h4.5v9.6
		h-4.5V726.1z M1030.5,737h4.5v9.6h-4.5V737z M1030.5,747.9h4.5v9.3h-4.5V747.9z M1035,551.7v10.1h-4.5v-10.1H1035z M1088.2,757.2
		h-12.8V551.7h4.1v-28.3h0.1v-2.7h-3.8V513h12.4V757.2z M1078.8,511.7h-4.4v1h-37.4v-11.7l41.7,8.5V511.7z M1034.4,500.4v12.3h-4.2
		v-13.1L1034.4,500.4z M1028.8,489v31.7h-3.8v2.7h0.1v28.3h4.1v213h-7.6v1.3h7.6v4.4h-7.6v1.3h7.6v4.4h-7.6v1.3h7.6v4.4h-7.6v1.3
		h195.2v-1.3h-7.6v-4.4h7.6v-1.3h-7.6v-4.4h7.6v-1.3h-7.6v-4.4h7.6v-1.3h-7.6v-213h4.1v-28.3h0.1v-2.7h-3.8V489h12.4v299.3h-205.6
		V489H1028.8z M1012.2,488.5h2.9v299.8h-2.9V488.5z M1226.3,788.4h-2.9V488.5h2.9V788.4z"/>
	<rect x="1131.1" y="586.1" class="st0" width="2.7" height="3.4"/>
	<rect x="1131.1" y="578.4" class="st0" width="2.7" height="3.4"/>
	<rect x="1131.1" y="601.3" class="st0" width="2.7" height="3.4"/>
	<rect x="1131.1" y="593.7" class="st0" width="2.7" height="3.4"/>
	<rect x="1131.1" y="616.6" class="st0" width="2.7" height="3.4"/>
	<rect x="1131.1" y="609" class="st0" width="2.7" height="3.4"/>
	<rect x="1131.1" y="631.9" class="st0" width="2.7" height="3.4"/>
	<rect x="1131.1" y="624.3" class="st0" width="2.7" height="3.4"/>
	<rect x="1131.1" y="647.2" class="st0" width="2.7" height="3.4"/>
	<rect x="1131.1" y="639.6" class="st0" width="2.7" height="3.4"/>
	<rect x="1131.1" y="662.5" class="st0" width="2.7" height="3.4"/>
	<rect x="1131.1" y="654.8" class="st0" width="2.7" height="3.4"/>
	<rect x="1131.1" y="677.8" class="st0" width="2.7" height="3.4"/>
	<rect x="1131.1" y="670.1" class="st0" width="2.7" height="3.4"/>
	<rect x="1131.1" y="693.1" class="st0" width="2.7" height="3.4"/>
	<rect x="1131.1" y="685.4" class="st0" width="2.7" height="3.4"/>
	<rect x="1131.1" y="708.3" class="st0" width="2.7" height="3.4"/>
	<rect x="1131.1" y="700.7" class="st0" width="2.7" height="3.4"/>
	<rect x="1131.1" y="723.6" class="st0" width="2.7" height="3.4"/>
	<rect x="1131.1" y="716" class="st0" width="2.7" height="3.4"/>
	<rect x="1131.1" y="738.9" class="st0" width="2.7" height="3.4"/>
	<rect x="1131.1" y="731.3" class="st0" width="2.7" height="3.4"/>
	<rect x="1131.1" y="746.6" class="st0" width="2.7" height="3.4"/>
	<rect x="1104.7" y="586.1" class="st0" width="2.7" height="3.4"/>
	<rect x="1104.7" y="578.4" class="st0" width="2.7" height="3.4"/>
	<rect x="1104.7" y="601.3" class="st0" width="2.7" height="3.4"/>
	<rect x="1104.7" y="593.7" class="st0" width="2.7" height="3.4"/>
	<rect x="1104.7" y="616.6" class="st0" width="2.7" height="3.4"/>
	<rect x="1104.7" y="609" class="st0" width="2.7" height="3.4"/>
	<rect x="1104.7" y="631.9" class="st0" width="2.7" height="3.4"/>
	<rect x="1104.7" y="624.3" class="st0" width="2.7" height="3.4"/>
	<rect x="1104.7" y="647.2" class="st0" width="2.7" height="3.4"/>
	<rect x="1104.7" y="639.6" class="st0" width="2.7" height="3.4"/>
	<rect x="1104.7" y="662.5" class="st0" width="2.7" height="3.4"/>
	<rect x="1104.7" y="654.8" class="st0" width="2.7" height="3.4"/>
	<rect x="1104.7" y="677.8" class="st0" width="2.7" height="3.4"/>
	<rect x="1104.7" y="670.1" class="st0" width="2.7" height="3.4"/>
	<rect x="1104.7" y="693.1" class="st0" width="2.7" height="3.4"/>
	<rect x="1104.7" y="685.4" class="st0" width="2.7" height="3.4"/>
	<rect x="1104.7" y="708.3" class="st0" width="2.7" height="3.4"/>
	<rect x="1104.7" y="700.7" class="st0" width="2.7" height="3.4"/>
	<rect x="1104.7" y="723.6" class="st0" width="2.7" height="3.4"/>
	<rect x="1104.7" y="716" class="st0" width="2.7" height="3.4"/>
	<rect x="1104.7" y="738.9" class="st0" width="2.7" height="3.4"/>
	<rect x="1104.7" y="731.3" class="st0" width="2.7" height="3.4"/>
	<rect x="1104.7" y="746.6" class="st0" width="2.7" height="3.4"/>
</g>
<g>
	<path class="st1" d="M1475.1,793.1l-1.4-7.6c-18.8-148.4-47.1-250.5-48.3-254.8l-5.4-19.2l-2.9,7.6c-16.9-70-34.2-134.3-51.5-191.3
		l-1.7-5.5l-5.4,2.1l-5.8,0.5v120.8c-4.5,0.9-8.5,2.3-11.6,3.7c-7-10.8-15.3-16.1-15.7-16.3c-0.2-0.1-0.4-0.2-0.6-0.3V324.7
		l-5.7-0.5l-5.5-2.1l-1.7,5.5c-17.3,57-34.6,121.3-51.5,191.3l-2.9-7.6l-5.4,19.2c-0.3,1-29.3,104.7-48.3,254.7l-1.4,7.8h13.7
		l-0.3,1.3h24.6l5.5-1.3h185.7l5.3,1.3l24.8,0.1l-0.3-1.4H1475.1z"/>
	<path class="st0" d="M1468.8,787.7l-0.3-1.5c-19-149.8-47.9-253-48.2-254l-1.1-3.9l-3.3,8.7c-15.7-66.1-34.4-138.4-55.4-207.6
		l-0.9,0.3l-1.7,0.1v120.5c-8.3,0.7-16,4.4-18.9,5.9c-6.7-12.3-16-18.3-16.4-18.6c-0.5-0.3-1.2-0.3-1.6,0.1
		c-0.5,0.4-0.6,1.1-0.3,1.6c3.7,7.7,9.8,13.8,13.6,17.1h-14.8V329.7l-1.7-0.1l-0.9-0.3c-21,69.2-39.7,141.5-55.4,207.6l-3.3-8.7
		l-1.1,3.9c-0.3,1-29.2,104.2-48.2,254l-0.3,1.5h13.9l-0.3,1.3h17.6l5.5-1.3h93.4h93.4l5.2,1.3l17.9,0.1l-0.3-1.3H1468.8z
		 M1454.4,785l-5.3-24.3h12.1c2.4,12.6,3.9,21,4.5,24.3H1454.4z M1414.6,542.9c0.7,2.9,1.3,5.7,2,8.6H1403l-1.9-8.6H1414.6z
		 M1417,552.8c0.7,2.8,1.3,5.7,2,8.5h-13.8l-1.9-8.5H1417z M1419.2,562.6c0.7,2.9,1.3,5.7,2,8.6h-13.9l-1.9-8.6H1419.2z
		 M1421.5,572.5c0.7,2.9,1.3,5.7,2,8.6h-14l-1.9-8.6H1421.5z M1423.8,582.5c0.7,2.9,1.3,5.7,1.9,8.6h-14l-1.9-8.6H1423.8z
		 M1426.1,592.4c0.6,2.9,1.3,5.7,1.9,8.6h-14.1l-1.9-8.6H1426.1z M1428.3,602.3c0.6,2.9,1.3,5.7,1.9,8.6h-14.1l-1.9-8.6H1428.3z
		 M1430.5,612.2c0.6,2.9,1.3,5.7,1.9,8.6h-14.1l-1.9-8.6H1430.5z M1432.7,622.1c0.6,2.9,1.3,5.7,1.9,8.6h-14.1l-1.9-8.6H1432.7z
		 M1420.7,632h14.1c0.6,2.9,1.2,5.7,1.9,8.6h-14.1L1420.7,632z M1437,641.9c0.6,2.9,1.2,5.7,1.8,8.6h-14l-1.9-8.6H1437z
		 M1439.1,651.8c0.6,2.9,1.2,5.7,1.8,8.6H1427l-1.9-8.6H1439.1z M1441.2,661.7c0.6,2.9,1.2,5.7,1.8,8.6h-13.9l-1.9-8.6H1441.2z
		 M1443.3,671.6c0.6,2.9,1.2,5.7,1.8,8.6h-13.7l-1.9-8.6H1443.3z M1445.3,681.5c0.6,2.9,1.2,5.8,1.8,8.6h-13.6l-1.9-8.6H1445.3z
		 M1447.4,691.4c0.6,2.9,1.2,5.8,1.7,8.6h-13.5l-1.9-8.6H1447.4z M1449.4,701.3c0.6,2.9,1.2,5.8,1.7,8.6h-13.3l-1.9-8.6H1449.4z
		 M1451.4,711.2c0.6,2.9,1.2,5.8,1.7,8.6H1440l-1.9-8.6H1451.4z M1453.4,721.1c0.6,2.9,1.1,5.8,1.7,8.6h-12.9l-1.9-8.6H1453.4z
		 M1455.3,731c0.6,3,1.1,5.8,1.7,8.6h-12.6l-1.9-8.6H1455.3z M1457.3,740.9c0.6,3,1.1,5.8,1.7,8.6h-12.4l-1.9-8.6H1457.3z
		 M1459.2,750.8c0.6,3,1.1,5.9,1.6,8.6h-12.1l-1.9-8.6H1459.2z M1418.9,536.9c4.7,17.4,23.5,90.6,39.4,194.9
		c-8.8-44.7-22.9-113.1-41.1-190.2L1418.9,536.9z M1414.2,541.5h-13.4l-2.4-10.7l-2.9,10.7c0,0.1-0.4,1.4-0.9,3.6l-20-105.7l0,0.2
		l-12-93.8c19.4,65.6,36.8,133.4,51.6,195.6L1414.2,541.5z M1309.4,598.9c0.1,0.3,0.2,0.6,0.4,0.9c0.8,1.5,2.3,2.6,4.4,3
		c1,0.2,1.8,0.2,2.6,0.1v3.6c0,0,0,0,0,0c-0.4,0.4-0.4,1.1-0.1,1.6c0,0.1,0.1,0.1,0.2,0.2v151.7h-7.4
		C1311.1,707.1,1310.6,649.4,1309.4,598.9z M1330.8,483.2c0,0.6,0.4,1.1,1,1.3c0.1,0,0.2,0,0.3,0c0.5,0,0.9-0.3,1.2-0.7
		c3.8-7,5.5-15.4,6.2-20.8h16.7c0.3,0.5,0.9,1.4,1.9,2.1h-0.1v44.3c-9.1,3.3-16.7,10.9-19.3,13.7c-7.6-7.2-15.7-10.1-19.1-11.2
		v-46.8h-0.1c1-0.7,1.6-1.6,1.8-2.1h13.5C1330.8,473.6,1330.8,482.7,1330.8,483.2z M1336,467.8c-0.4,1.8-0.8,3.8-1.4,5.8
		C1334.9,471.8,1335.4,469.8,1336,467.8z M1340,459.2c3.9-0.1,7.5-0.7,10.6-1.6h16.4c0.3,0.9,0.7,3.2-0.3,4.9
		c-0.6,1.2-1.8,2-3.5,2.4c-4.3,1-5.9-2.6-6-2.8l-0.2-0.4h-17.4C1339.8,460.7,1339.9,459.8,1340,459.2z M1357.5,529.3l-0.2-0.4h-16.2
		c-0.2-1.2-0.4-2.3-0.6-3.1c0.8-0.3,1.6-0.7,2.3-1h24.4c0.3,0.9,0.7,3.2-0.3,4.9c-0.6,1.2-1.8,2-3.5,2.4
		C1359.2,533,1357.6,529.4,1357.5,529.3z M1345.4,523.4c6-3.3,10.3-7.4,12.5-9.9v9.9H1345.4z M1345.7,520.1c1.9-1.7,4.3-3.5,6.8-5.1
		C1350.6,516.7,1348.4,518.5,1345.7,520.1z M1331.6,520.9c-2.4-1.1-5-2.5-7.6-4.4C1326.2,517.5,1328.9,519,1331.6,520.9z
		 M1330.6,523.4h-11.1v-6.9C1323.2,519.6,1327.2,521.8,1330.6,523.4z M1333.8,524.7c1.5,0.6,2.6,1,3.4,1.2c-0.1,1-0.3,1.9-0.4,2.9
		h-16.2l-0.2,0.4c-0.1,0.2-1.7,3.8-6,2.8c-1.7-0.4-2.9-1.2-3.5-2.4c-1-1.8-0.5-4-0.3-4.9H1333.8z M1321.5,530.2h15.2
		c-1,12,1.8,21.1,2,21.5c0.2,0.6,0.7,0.9,1.3,0.9c0,0,0,0,0.1,0c0.6,0,1.1-0.5,1.2-1.1c1.6-7.8,0.8-16,0-21.4h15.2
		c0.3,0.5,0.8,1.3,1.7,2h-0.2v60.8h-17.5c2.9-13.7,0.2-25,0.1-25.5c-0.1-0.6-0.7-1-1.3-1c-0.5,0-1.2,0.4-1.3,1
		c-2.7,10-1.5,21.2-0.8,25.5h-17.6v-60.5h0C1320.5,531.7,1321.2,530.7,1321.5,530.2z M1339.5,541.1c-0.2-1.7-0.3-3.6-0.3-5.6
		C1339.4,537.3,1339.5,539.2,1339.5,541.1z M1377.6,483.8l7.7,40.6h-9.5C1376.5,508.2,1377.1,494.3,1377.6,483.8z M1375.7,527.2
		h10.1l5.9,31.1c-0.2,0.7-0.3,1.5-0.5,2.3h-16.7C1374.9,548.7,1375.3,537.4,1375.7,527.2z M1368.1,760.1h-7.4V602.9
		c0.4,0.1,0.9,0.2,1.4,0.2c0.5,0,1.1-0.1,1.7-0.2c2-0.5,3.4-1.4,4.2-2.8C1366.8,650.3,1366.4,707.5,1368.1,760.1z M1338.7,742.9
		h-12.8h-6.4V608.4c6.1-1.9,11.7-5.7,15.4-8.6h7.1c7.1,6.3,14.1,8.9,15.9,9.5v133.7h-6.3H1338.7z M1339.1,577.9
		c0.1,1.7,0.1,3.6-0.1,5.6C1339,581.8,1339,579.9,1339.1,577.9z M1338.7,596.5c0.6,0.7,1.3,1.3,1.9,1.9h-4
		C1337.4,597.6,1338.2,597,1338.7,596.5z M1346.6,599.7c1.9,1.1,3.9,2.4,5.9,4c-1.8-1-3.9-2.4-6.1-4H1346.6z M1330.4,599.7
		c-1.8,1.3-3.9,2.6-6.1,3.7c1.6-1.2,3.5-2.5,5.7-3.7H1330.4z M1319.5,603.9V602h0c1.1-0.8,1.7-1.7,2-2.2h3.3
		C1322.6,601.3,1320.8,602.7,1319.5,603.9z M1358,601.7v3.4c-2-2.1-4.2-3.9-6.4-5.4h4.9c0.3,0.5,0.8,1.3,1.7,2H1358z M1367,599.2
		c-0.6,1.2-1.8,2-3.5,2.4c-4.2,1-5.9-2.6-6-2.8l-0.2-0.4h-7.7c-2.9-1.8-5.5-3.2-7.5-4.1h25.1C1367.5,595.2,1367.9,597.5,1367,599.2z
		 M1335.3,594.3c-3.2,1.2-6,2.6-8.4,4.1h-6.3l-0.2,0.4c-0.1,0.2-1.7,3.8-6,2.8c-1.7-0.4-2.9-1.2-3.5-2.4c-1-1.8-0.5-4-0.3-4.9
		H1335.3z M1301.7,524.5h-9.5l7.7-40.6C1300.4,494.3,1301,508.2,1301.7,524.5z M1291.6,527.2h10.1c0.4,10.3,0.8,21.5,1.2,33.4h-16.7
		c-0.2-0.8-0.3-1.5-0.5-2.3L1291.6,527.2z M1303.1,563.3c0.3,10.6,0.7,21.8,0.9,33.4h-11.2c-2.1-13.2-4.2-24.5-6-33.4H1303.1z
		 M1304.1,599.4c0.5,21.4,0.9,44.1,1,67.3h-4.8c-1.5-25.1-4.2-48.1-7.1-67.3H1304.1z M1300.5,669.3h4.6c0.1,29.4-0.1,59.4-1,88h-5.1
		C1301.9,726.9,1302,696.9,1300.5,669.3z M1298.4,762.7h8.2v0h12.8v-17.1h6.4v26h-28.5C1297.8,768.6,1298.1,765.7,1298.4,762.7z
		 M1328.6,745.6h8.8v26h-8.8V745.6z M1340.1,745.6h8.9v26h-8.9V745.6z M1351.6,745.6h6.3v17.1h12.8v0h8.2c0.3,2.9,0.7,5.9,1,8.9
		h-28.4V745.6z M1373.4,757.3c-0.9-28.6-1.2-58.6-1-88h4.6c-1.5,27.5-1.5,57.6,1.5,88H1373.4z M1377.2,666.6h-4.8
		c0.1-23.1,0.5-45.8,1-67.3h10.9C1381.4,618.6,1378.6,641.5,1377.2,666.6z M1384.7,596.7h-11.2c0.3-11.6,0.6-22.8,0.9-33.4h16.3
		C1388.8,572.2,1386.7,583.5,1384.7,596.7z M1360.7,350.9l13.2,103.2l-0.4,7c-0.1,1-3.4,57.9-5.2,131.8h-7.5v-59.5
		c0.4,0.1,0.9,0.2,1.4,0.2c0.5,0,1.1-0.1,1.7-0.2c2.1-0.5,3.6-1.5,4.4-3c1.5-2.8,0.2-6.3,0.2-6.5l-0.2-0.4h-7.5v-57.1
		c0.8,0.2,1.8,0.2,2.9-0.1c2.1-0.5,3.5-1.5,4.4-3c1.5-2.8,0.3-6.3,0.2-6.5l-0.2-0.4h-7.3v-2.7c1-0.6,1.7-1,1.7-1
		c0.5-0.3,0.7-0.9,0.5-1.5c-0.2-0.6-0.7-1-1.3-1c-0.3,0-0.7,0-1,0V350.9z M1358,456.2h-3.2c1.2-0.5,2.3-0.9,3.2-1.3V456.2z
		 M1354.8,453.3c-2.4,1-5.4,1.9-8.8,2.5C1348.5,454.9,1351.6,453.9,1354.8,453.3z M1327.4,444.9c1.6,1.6,3.4,3.6,5.1,5.9
		C1330.9,449.2,1329.1,447.2,1327.4,444.9z M1336.8,458.3c-0.6,1.1-1.1,2.3-1.5,3.4h-14.9l-0.2,0.4c-0.1,0.2-1.7,3.8-6,2.8
		c-1.7-0.4-2.9-1.2-3.5-2.4c-1-1.8-0.5-4-0.3-4.9h25.4C1336.2,457.8,1336.5,458.1,1336.8,458.3z M1309.5,456.2l-0.2,0.4
		c-0.1,0.1-1.3,3.7,0.2,6.5c0.8,1.5,2.3,2.6,4.4,3c0.6,0.1,1.2,0.2,1.7,0.2c0.4,0,0.8,0,1.1-0.1v45.4c-0.2,0.1-0.4,0.3-0.5,0.5
		c-0.3,0.5-0.2,1.2,0.2,1.6c0.1,0.1,0.2,0.2,0.3,0.3v9.4h-7l-0.2,0.4c-0.1,0.1-1.3,3.7,0.2,6.5c0.8,1.5,2.3,2.6,4.4,3
		c1,0.2,1.8,0.2,2.6,0.1v59.5h-7l-0.2,0.4c0,0-0.2,0.5-0.3,1.1c-1.8-74.6-5.2-132.4-5.3-133.3l-0.4-7l13.2-103.2v105.3H1309.5z
		 M1314.7,345.8l-12,93.8l0-0.2l-20,105.7c-0.5-2.2-0.9-3.5-0.9-3.6l-2.9-10.7l-2.4,10.7h-13.4l0-0.1
		C1277.9,479.2,1295.3,411.4,1314.7,345.8z M1218.3,750.8h12.3l-1.9,8.6h-12.1C1217.1,756.7,1217.7,753.8,1218.3,750.8z
		 M1218.5,749.5c0.5-2.7,1.1-5.6,1.7-8.6h12.6l-1.9,8.6H1218.5z M1220.4,739.6c0.5-2.7,1.1-5.6,1.7-8.6h12.8l-1.9,8.6H1220.4z
		 M1222.4,729.7c0.5-2.8,1.1-5.6,1.7-8.6h13.1l-1.9,8.6H1222.4z M1224.3,719.8c0.6-2.8,1.1-5.6,1.7-8.6h13.3l-1.9,8.6H1224.3z
		 M1226.3,709.8c0.6-2.8,1.1-5.6,1.7-8.6h13.4l-1.9,8.6H1226.3z M1228.3,699.9c0.6-2.8,1.2-5.6,1.7-8.6h13.6l-1.9,8.6H1228.3z
		 M1230.4,690c0.6-2.8,1.2-5.7,1.8-8.6h13.7l-1.9,8.6H1230.4z M1232.4,680.1c0.6-2.8,1.2-5.7,1.8-8.6h13.8l-1.9,8.6H1232.4z
		 M1234.5,670.2c0.6-2.8,1.2-5.7,1.8-8.6h13.9l-1.9,8.6H1234.5z M1236.6,660.3c0.6-2.8,1.2-5.7,1.8-8.6h14l-1.9,8.6H1236.6z
		 M1238.7,650.4c0.6-2.8,1.2-5.7,1.8-8.6h14.1l-1.9,8.6H1238.7z M1240.8,640.5c0.6-2.8,1.2-5.7,1.9-8.6h14.1l-1.9,8.6H1240.8z
		 M1257,630.6h-14.1c0.6-2.8,1.2-5.7,1.9-8.6h14.1L1257,630.6z M1259.2,620.7h-14.1c0.6-2.8,1.2-5.7,1.9-8.6h14.1L1259.2,620.7z
		 M1261.4,610.8h-14.1c0.6-2.8,1.3-5.7,1.9-8.6h14.1L1261.4,610.8z M1263.6,600.9h-14.1c0.6-2.8,1.3-5.7,1.9-8.6h14.1L1263.6,600.9z
		 M1265.8,591h-14c0.6-2.8,1.3-5.7,1.9-8.6h14L1265.8,591z M1267.9,581.1h-14c0.6-2.8,1.3-5.7,2-8.6h13.9L1267.9,581.1z
		 M1270.1,571.2h-13.9c0.7-2.8,1.3-5.7,2-8.6h13.8L1270.1,571.2z M1272.3,561.2h-13.8c0.7-2.8,1.3-5.6,2-8.5h13.7L1272.3,561.2z
		 M1274.5,551.4h-13.6c0.7-2.8,1.3-5.7,2-8.6h13.5L1274.5,551.4z M1258.6,536.9l1.8,4.7c-18.2,77.1-32.4,145.5-41.1,190.2
		C1235.1,627.4,1253.9,554.3,1258.6,536.9z M1211.9,785c0.6-3.3,2.1-11.7,4.5-24.3h12.1l-5.3,24.3H1211.9z M1228.9,783.6l5-22.9
		h52.1v-1.3h-51.8l1.9-8.6h47.6v-1.3h-47.3l1.9-8.6h44v-1.3h-43.8l1.9-8.6h40.3v-1.3h-40l1.9-8.6h36.5v-1.3H1243l1.9-8.6h32.9v-1.3
		h-32.6l1.9-8.6h28.8v-1.3h-28.5l1.9-8.6h25.1V690h-24.8l1.9-8.6h20.8v-1.3h-20.5l1.9-8.6h16.7v-1.3h-16.4l1.9-8.6h12.5v-1.3H1256
		l1.9-8.6h8.1v-1.3h-7.8l1.9-8.6h3.6v-1.3h-3.3l19-86.3c7,31.5,24.5,123.5,12.7,216.5l-52.9,12.9H1228.9z M1338.7,785h-82.3
		l40.5-9.9l0.1-0.8h28.8h12.8h12.9h28.8l0.1,0.8l40.5,9.9H1338.7z M1438.3,783.6l-52.9-12.9c-11.8-93,5.7-185,12.7-216.5l19,86.3
		h-3.3v1.3h3.6l1.9,8.6h-7.8v1.3h8.1l1.9,8.6h-12.2v1.3h12.5l1.9,8.6h-16.4v1.3h16.7l1.9,8.6h-20.5v1.3h20.8l1.9,8.6h-24.8v1.3h25.1
		l1.9,8.6h-28.5v1.3h28.8l1.9,8.6h-32.6v1.3h32.9l1.9,8.6h-36.2v1.3h36.5l1.9,8.6h-40v1.3h40.3l1.9,8.6h-43.8v1.3h44l1.9,8.6h-47.3
		v1.3h47.6l1.9,8.6h-51.8v1.3h52.1l5,22.9H1438.3z"/>
</g>
<g>
	<path class="st0" d="M467.8,426.2l-0.3,0v-0.4l0.3-0.1l-0.3-0.7v-1.5h-0.7l-11.3-24.6V364h-2.7v34.8l-11.3,24.6H435v-22.7l-15.9,25
		h1.2c-3.7,7.8-18.5,40.2-19.3,61.9c0,0.6-0.5,62.3-20.9,129.1l0.7,0.2v0.3h45.5v-1.3h-44.6c0.6-1.9,1.1-3.8,1.7-5.7h42.9V609h-42.5
		c0.5-1.9,1.1-3.8,1.6-5.7h40.9v-1.3h-40.6c0.5-1.9,1-3.8,1.5-5.7h39.1v-1.3h-38.8c0.5-1.9,0.9-3.8,1.4-5.7h37.4v-1.3h-37.1
		c0.4-1.9,0.9-3.8,1.3-5.7h35.8v-1.3h-35.5c0.4-1.9,0.8-3.8,1.2-5.7h34.3v-1.3h-34c0.4-1.9,0.8-3.8,1.1-5.7h32.9v-1.3h-32.6
		c0.4-1.9,0.7-3.9,1-5.7h31.6v-1.3h-31.3c0.3-1.9,0.7-3.9,1-5.7h30.4v-1.3h-30.2c0.3-1.9,0.6-3.9,0.9-5.7h29.3v-1.3h-29.1
		c0.3-2,0.6-3.9,0.8-5.7h28.3V538h-28.1c0.3-2,0.5-3.9,0.7-5.7h27.4v-1.3h-27.2c0.2-2,0.4-3.9,0.6-5.7h26.6v-1.3H400
		c0.2-2,0.4-3.9,0.6-5.7h25.8v-1.3h-25.7c0.2-2,0.3-3.9,0.5-5.7h25.2v-1.3h-25.1c0.2-2,0.3-4,0.4-5.7h24.7v-1.3h-24.6
		c0.1-1.9,0.2-3.6,0.3-5.1h24.6v-2.7h-16.8v-5h16.5v-1.3h-16.5v-4h16.8v-2.7H403c0.3-2,0.6-4,1-6.1h22.4v-1.3h-22.1
		c0.4-1.9,0.9-3.8,1.4-5.7h20.7v-1.3h-20.4c0.5-1.9,1.1-3.8,1.7-5.7h18.7V460h-18.2c0.6-1.9,1.3-3.9,1.9-5.7h16.3v-1.3h-15.8
		c0.7-2,1.4-3.9,2.1-5.7h13.7v-1.3h-13.2c0.8-2,1.6-3.9,2.3-5.7h10.9v-1.3h-10.3c0.9-2.1,1.7-4,2.5-5.7h7.8v-1.3h-7.2
		c1.2-2.7,2.1-4.7,2.7-5.8h7.7v0.4v283c-79.2-100.3-80.8-259.2-80.8-260.9c-1-24.9-18.2-62.3-22-70.3h1l-16.9-26.6v24.8h-7.6
		L290.3,348v-39.4h-2.7V348l-12.9,28.1h-0.8v1.7l-0.2,0.4l0.2,0.1v0.5l-0.3,0l7.9,193.3v216.7h2.7v-0.1h174v0.3h2.7V595.5
		L467.8,426.2z M408.5,494.7h-6.3c0.2-4.4,0.2-6.9,0.2-7c0-1.1,0.1-2.3,0.3-3.4h5.9V494.7z M435,428.9h23.1v3.1H435V428.9z
		 M466.3,428.9l-0.1,3.1h-5.3v-3.1H466.3z M466.1,434.6l-0.2,4.4h-5v-4.4H466.1z M465.8,441.8l-0.2,4.4h-4.7v-4.4H465.8z M435,434.6
		h23.1v4.4H435V434.6z M435,441.8h23.1v4.4H435V441.8z M465.5,448.9l-4.6,113.4V448.9H465.5z M454.1,402.3l9.7,21.1h-19.4
		L454.1,402.3z M429,420.4l0.6-1v1H429z M429.8,777.1v10.3h-15.2v-12.6h11.2v-58h3.9v60.3H429.8z M324.3,716.7h96v3.9h-96V716.7z
		 M409,769.4v-6h11.4v6H409z M420.4,752.7H409v-5.3h11.4V752.7z M420.4,760.7H409v-5.3h11.4V760.7z M420.4,744.7H409v-4h11.4V744.7z
		 M324.3,723.3h96v5.2h-96V723.3z M324.3,731.2h96v4.1h-96V731.2z M335.7,760.7h-11.4v-5.3h11.4V760.7z M335.7,752.7h-11.4v-5.3
		h11.4V752.7z M335.7,740.7v4h-11.4v-4H335.7z M324.3,763.4h11.4v5.3h-11.4V763.4z M341.1,774.1v-33.4h5.6v46.6H332v-13.2H341.1z
		 M348.1,740.7h15.2v46.6h-15.2V740.7z M364.7,740.7H380v46.6h-15.3V740.7z M381.3,740.7h15.2v31.4v15.3h-15.2V740.7z M397.9,772.1
		v-31.4h5.6v34.1h9.6v12.6h-15.2V772.1z M340.3,444.3h6.8c0.1,1.4,0.2,2.7,0.3,4c0,0.2,0,3.1,0.3,8.1h-7.3V444.3z M316.2,369.9
		l1.7,2.7h-1.7V369.9z M316.2,378h9c0.6,1.3,1.8,3.7,3.3,7h-8.3v1.3h8.9c0.9,2,1.8,4.2,2.9,6.7h-11.8v1.3h12.3
		c0.9,2.1,1.8,4.3,2.7,6.7h-15v1.3h15.5c0.8,2.2,1.7,4.4,2.5,6.7h-18v1.3h18.5c0.8,2.2,1.5,4.4,2.2,6.7h-20.7v1.3h21.1
		c0.7,2.2,1.4,4.4,2,6.7h-23.1v1.3h23.5c0.6,2.2,1.1,4.5,1.6,6.7h-25.1v1.3h25.4c0.5,2.4,0.9,4.8,1.2,7.2H320v2.7h19v4.8h-18.8v1.3
		H339v5.9h-19v2.7h27.9c0.1,1.8,0.2,3.8,0.3,6h-27.9v1.3h28c0.1,2.1,0.3,4.3,0.5,6.7h-28.5v1.3h28.6c0.2,2.1,0.4,4.3,0.6,6.7h-29.2
		v1.3h29.3c0.2,2.1,0.4,4.4,0.7,6.7h-30v1.3h30.1c0.2,2.2,0.5,4.4,0.8,6.7h-30.9v1.3h31.1c0.3,2.2,0.5,4.4,0.9,6.7h-31.9v1.3h32.1
		c0.3,2.2,0.6,4.4,0.9,6.7h-33v1.3h33.2c0.3,2.2,0.7,4.4,1,6.7h-34.3v1.3h34.5c0.4,2.2,0.7,4.4,1.1,6.7h-35.6v1.3h35.9
		c0.4,2.2,0.8,4.4,1.2,6.7h-37.1v1.3h37.3c0.4,2.2,0.9,4.4,1.3,6.7h-38.6v1.3h38.9c0.5,2.2,0.9,4.4,1.4,6.7h-40.3v1.3h40.6
		c0.5,2.2,1,4.4,1.5,6.7h-42.1v1.3h42.4c0.5,2.2,1.1,4.4,1.6,6.7h-44v1.3h44.4c0.6,2.2,1.1,4.4,1.7,6.7h-46.1v1.3h46.5
		c0.6,2.2,1.2,4.4,1.8,6.7h-48.3v1.3h48.7c0.6,2.2,1.3,4.4,2,6.7h-50.6v1.3h51.1c0.7,2.2,1.4,4.4,2.1,6.7h-53.1v1.3h53.6
		c0.7,2.2,1.5,4.4,2.2,6.7h-55.8v1.3h56.2c0.8,2.2,1.5,4.4,2.3,6.7h-58.6v1.3h59.1c0.8,2.2,1.6,4.4,2.5,6.7h-61.6v1.3h62.1
		c0.9,2.2,1.7,4.4,2.7,6.7h-64.8v1.3h65.3c0.9,2.2,1.9,4.4,2.8,6.7h-68.2v1.3H389c1,2.2,2,4.4,3,6.7h-71.8v1.3h72.4
		c1,2.2,2.1,4.4,3.2,6.7h-75.6v1.3h76.3c1.1,2.2,2.2,4.5,3.4,6.7h-79.7v1.3h80.4c1.2,2.2,2.4,4.5,3.7,6.7h-84v1.3H405
		c1.3,2.2,2.6,4.5,3.9,6.7h-88.7v1.3h89.5c1.4,2.2,2.8,4.5,4.2,6.7h-93.7v1.3h94.6c1.5,2.2,3,4.5,4.5,6.7h-99.1v1.3h100.1
		c1.6,2.2,3.2,4.5,4.9,6.7H320.2v1.3h105.9c1.1,1.5,2.3,2.9,3.5,4.4v0H320.5v0.1h-1.5v62.7h11.8v13.2h-15.2v-13.2h0.8V378.8V378z
		 M314.1,774.1v13.2h-15.3v-13.2H314.1z M281.5,539L276,404.3h5.5V539z M281.5,381.5v4h-6.3l-0.2-4H281.5z M310.8,401.6h-26.7v-5.3
		h26.7V401.6z M275.7,396.2h5.8v5.3h-5.6L275.7,396.2z M281.5,388.2v5.3h-5.9l-0.2-5.3H281.5z M310.8,393.5h-26.7v-5.3h26.7V393.5z
		 M310.8,385.5h-26.7v-4h26.7V385.5z M289,351.5l11.3,24.6h-22.6L289,351.5z M284.2,404.3h26.7v3.8h-15.2v2.7h15.2v5.3h-15.2v2.7
		h15.2v5.3h-15.2v2.7h15.2v5.3h-15.2v2.7h15.2v5.3h-15.2v2.7h15.2v5.3h-15.2v2.7h15.2v5.3h-15.2v2.7h15.2v5.3h-15.2v2.7h15.2v5.3
		h-15.2v2.7h15.2v5.3h-15.2v2.7h15.2v5.3h-15.2v2.7h15.2v5.3h-15.2v2.7h15.2v5.3h-15.2v2.7h15.2v5.3h-15.2v2.7h15.2v5.3h-15.2v2.7
		h15.2v5.3h-15.2v2.7h15.2v5.3h-15.2v2.7h15.2v5.3h-15.2v2.7h15.2v5.3h-15.2v2.7h15.2v5.3h-15.2v2.7h15.2v5.3h-15.2v2.7h15.2v5.3
		h-15.2v2.7h15.2v5.3h-15.2v2.7h15.2v5.3h-15.2v2.7h15.2v5.3h-15.2v2.7h15.2v5.3h-15.2v2.7h15.2v5.3h-15.2v2.7h15.2v5.3h-15.2v2.7
		h15.2v5.3h-15.2v2.7h15.2v5.3h-15.2v2.7h15.2v5.3h-15.2v2.7h15.2v5.3h-15.2v2.7h15.2v5.3h-15.2v2.7h15.2v5.3h-15.2v2.7h15.2v5.3
		h-15.2v2.7h15.2v5.3h-15.2v2.7h15.2v5.3h-15.2v2.7h15.2v5.3h-15.2v2.7h15.2v5.3h-15.2v2.7h15.2v5.3h-15.2v2.7h15.2v5.3h-15.2v2.7
		h15.2v5.3h-15.2v2.7h15.2v5.3h-15.2v2.7h15.2v5.3h-15.2v2.7h15.2v5.3h-15.2v2.7h15.2v5.3h-15.2v5.4h1.8v13.2h-13.3V404.3z
		 M431.1,787.3v-10.3h17v-5.4H435v-4.8h13.1v-2.7H435v-4.4h13.1V757H435v-4.4h13.1v-2.7H435v-4.4h13.1v-2.7H435v-4.4h13.1v-2.7H435
		v-4.4h13.1v-2.7H435v-4.4h13.1v-2.7H435v-4.4h13.1v-2.7H435v-4.4h13.1v-2.7H435V703h13.1v-2.7H435v-4.4h13.1v-2.7H435v-4.4h13.1
		v-2.7H435v-4.4h13.1V679H435v-4.4h13.1v-2.7H435v-4.4h13.1v-2.7H435v-4.4h13.1v-2.7H435v-4.4h13.1v-2.7H435v-4.4h13.1v-2.7H435
		v-4.4h13.1v-2.7H435V632h13.1v-2.7H435v-4.4h13.1v-2.7H435v-4.4h13.1v-2.7H435v-4.4h13.1V608H435v-4.4h13.1v-2.7H435v-4.4h13.1
		v-2.7H435v-4.4h13.1v-2.7H435v-4.4h13.1v-2.7H435v-4.4h13.1v-2.7H435v-4.4h13.1v-2.7H435v-4.4h13.1v-2.7H435V554h13.1v-2.7H435
		v-4.4h13.1v-2.7H435v-4.4h13.1v-2.7H435v-4.4h13.1V530H435v-4.4h13.1v-2.7H435v-4.4h13.1v-2.7H435v-4.4h13.1v-2.7H435v-4.4h13.1
		v-2.7H435v-4.4h13.1v-2.7H435v-4.4h13.1v-2.7H435V483h13.1v-2.7H435v-4.4h13.1v-2.7H435v-4.4h13.1v-2.7H435v-4.4h13.1V459H435v-4.4
		h13.1v-2.7H435v-3.1h23.1v338.5H431.1z"/>
	<rect x="385.4" y="623.2" class="st0" width="41" height="1.3"/>
	<rect x="388.2" y="630.2" class="st0" width="38.2" height="1.3"/>
	<rect x="391.2" y="637.3" class="st0" width="35.3" height="1.3"/>
	<rect x="394.3" y="644.4" class="st0" width="32.1" height="1.3"/>
	<rect x="397.6" y="651.5" class="st0" width="28.8" height="1.3"/>
	<rect x="401" y="658.6" class="st0" width="25.4" height="1.3"/>
	<rect x="404.7" y="665.7" class="st0" width="21.7" height="1.3"/>
	<rect x="408.6" y="672.8" class="st0" width="17.8" height="1.3"/>
	<rect x="412.7" y="679.9" class="st0" width="13.7" height="1.3"/>
	<rect x="417.2" y="687" class="st0" width="9.2" height="1.3"/>
	<rect x="421.9" y="694.1" class="st0" width="4.5" height="1.3"/>
</g>
<path class="st0" d="M929,363.4h-25.5v42.9H845v-42.9h-25.5V789h1.3v1.3h22.8v-0.3h21h20.3h19.9v0.3h22.8V789h1.3V363.4z
	 M906.1,366.1h20.1v421.6h-6.6V371.5h-1.3v416.2H914V371.5h-1.3v416.2h-6.6v-88.5V524.9v-95.5v-23.1V366.1z M890.3,426.7V409h6.3
	v17.7H890.3z M888.9,426.7h-6.3V409h6.3V426.7z M881.3,426.7H875V409h6.3V426.7z M873.6,426.7h-6.3V409h6.3V426.7z M866,426.7h-6.3
	V409h6.3V426.7z M858.3,426.7H852V409h6.3V426.7z M903.4,429.4v95.5H845v-95.5H903.4z M903.4,671.6h-23.9v-21.9h7.8v5.4h1.3v-5.4
	h7.8v5.4h1.3v-5.4h5.6V671.6z M879.5,600.5h7.8v21.9h-7.8V600.5z M878.1,622.4h-7.8v-21.9h7.8V622.4z M879.5,597.8V576h7.8v21.9
	H879.5z M878.1,597.8h-7.8V576h7.8V597.8z M869,597.8h-7.8V576h7.8V597.8z M869,600.5v21.9h-7.8v-21.9H869z M869,625.1V647h-7.8
	v-21.9H869z M870.3,625.1h7.8V647h-7.8V625.1z M879.5,625.1h7.8V647h-7.8V625.1z M888.6,625.1h7.8V647h-7.8V625.1z M888.6,622.4
	v-21.9h7.8v21.9H888.6z M888.6,597.8V576h7.8v21.9H888.6z M888.6,573.3v-21.9h7.8v21.9H888.6z M887.3,573.3h-7.8v-21.9h7.8V573.3z
	 M878.1,573.3h-7.8v-21.9h7.8V573.3z M869,573.3h-7.8v-21.9h7.8V573.3z M859.8,573.3h-6.3v-21.9h6.3V573.3z M859.8,576v21.9h-6.3
	V576H859.8z M859.8,600.5v21.9h-6.3v-21.9H859.8z M859.8,625.1V647h-6.3v-21.9H859.8z M859.8,649.7v21.9h-6.3v-21.9H859.8z
	 M861.2,649.7h7.8v21.9h-7.8V649.7z M870.3,649.7h7.8v21.9h-7.8V649.7z M903.4,647h-5.6v-21.9h5.6V647z M903.4,622.4h-5.6v-21.9h5.6
	V622.4z M903.4,597.8h-5.6V576h5.6V597.8z M903.4,573.3h-5.6v-21.9h5.6V573.3z M903.4,548.7h-5.6v-16.9h-1.3v16.9h-7.8v-16.9h-1.3
	v16.9h-7.8v-16.9h-1.3v16.9h-7.8v-16.9H869v16.9h-7.8v-16.9h-1.3v16.9h-6.3v-16.9h-1.3v16.9H845v-21.1h58.4V548.7z M845,551.4h7.2
	v21.9H845V551.4z M845,576h7.2v21.9H845V576z M845,600.5h7.2v21.9H845V600.5z M845,625.1h7.2V647H845V625.1z M845,649.7h7.2v21.9
	H845V649.7z M845,674.3h7.2v22.2H845V674.3z M853.5,674.3h6.3v22.2h-6.3V674.3z M861.2,674.3h7.8v22.2h-7.8V674.3z M870.3,674.3h7.8
	v22.2h-7.8V674.3z M879.5,674.3h23.9v22.2h-23.9V674.3z M845,699.2h7.2v2.4h1.3v-2.4h6.3v2.4h1.3v-2.4h7.8v2.4h1.3v-2.4h7.8v2.4h1.3
	v-2.4h23.9v55.9H845V699.2z M903.4,426.7h-5.5V409h5.5V426.7z M850.7,409v17.7H845V409H850.7z M842.3,366.1v40.2v23.1v95.5v174.3
	v88.5h-6.6V371.5h-1.3v416.2H830V371.5h-1.3v416.2h-6.6V366.1H842.3z M867.3,787.4v-11.8h14.9v11.8H867.3z M864.6,772.8v14.5H845
	v-26.9h58.4v26.9h-18.5v-14.5H864.6z"/>
<path class="st0" d="M767.9,787.7c2.1-18.9,2.1-35.9,0.1-50.4c3.4-32.4,1-59-7.3-79.3c7.3-32,11.3-64.8,7.3-92.4l-0.1,0
	c3.2-29.8,1.8-57.6-7.4-79.4l-0.1,0c8.9-33,14.3-67.9,9.9-96.6l-0.2-1.1h-99.5l0,1.3c-0.1,3.3-2.6,80.7,4.8,95.1
	c-8.3,35-13.7,71.8-7.6,95.3l0.1,0c-2,28-0.6,57.6,6.1,87.7c-6,27.3-10.8,60.8-9.6,95.2h0c-1.1,8.1-2.1,16.3-2.8,24.6h-13.5v2.7
	h136.5v-2.7H767.9z M765.2,787.7h-6.1c3.2-13.5,5.7-26.2,7.4-38.3C767.2,761,766.8,773.8,765.2,787.7z M756.3,787.7h-40.4
	c6.2-13.5,29.9-67.2,43.7-125C770.2,692.1,769.1,734.1,756.3,787.7z M712.9,787.7h-18c7.7-15.5,58.6-120,71.5-210.6
	C771.8,656.8,720.7,770.9,712.9,787.7z M673.3,391.2h31.1c-3.4,9-17.5,47.3-27.8,89C672.3,464.6,672.5,417.3,673.3,391.2z
	 M707.3,391.2h23.6c-8.4,13.1-52.9,86.6-62.1,178.9C661.8,513.6,703.2,402.1,707.3,391.2z M734.1,391.2h33.2
	c-11.1,74.5-48.8,158.6-64.6,191.4c-8.9,18.6-16.3,38-21.8,57.6c-1.8,6.4-3.7,13.6-5.5,21.3C648.1,525.9,727.8,400.8,734.1,391.2z
	 M683.5,641c5.5-19.5,12.8-38.7,21.6-57.2c15.3-31.8,51.1-111.6,63.6-184.4c6.3,79.9-53.8,198.8-54.4,200.1
	c-0.4,0.7-32.7,64.5-47.3,147.4C667.7,705.8,676.1,667.3,683.5,641z M716.7,600.7c0.4-0.8,26.4-52.2,42.6-110.3
	c34.5,92.3-60.6,283.9-67.4,297.3h-27.6C673.2,686.4,716.3,601.5,716.7,600.7z"/>
<g>
	<path class="st0" d="M610.5,749.4v-11h-2.8v-11h-2.8v-11H602v-11h-2.8v-11h-2.8v-11h-2.9v-11h-0.8v-333h-5.9v-30.7h-8v-14.2H578
		v-1.1h3.1v-2.7h-55.6v2.7h3.8v1.1h-0.9v14.2h-8v30.7h-5.9V673h-0.2v11h-2.9v11h-2.8v11h-2.8v11h-2.8v11h-2.8v11h-2.8v11h-2.8v39.7
		h32.8V750h-28.6v-9.7h30.1V789h1.3v-50h-28.6v-9.7h30.1V789h1.3v-61h-28.6v-9.7h30.1V789h1.3v-72h-28.6v-9.7h30.1V789h0.5v1.3h32
		V789h1v-81h28.7v8.3h-28.6V789h2.7v-70h28.7v8.3h-28.6V789h2.7v-59H605v8.3h-28.6V789h2.7v-48h28.7v8.3h-28.6v41h34.1v-41H610.5z
		 M525.9,788.4h-30.1v-37h30.1V788.4z M593.7,694.3h-28.6v64.1H565V686h28.7V694.3z M562.3,683.3v75.1h-0.8V675h29.2v8.3H562.3z
		 M560.2,758.4h-13.1V381l6.5-7.7l6.6,7.7V758.4z M532,293.3h43.3v1.1H532V293.3z M531,297.1h45.1v11.5H531V297.1z M523.1,311.3h61
		v28h-61V311.3z M517.2,342H590v330.3h-28.4V380.5l-7.9-9.3l-7.9,9.3V673h-28.5V342z M515.7,674.3h30.1v84.1h-1.6V684h-28.5V674.3z
		 M512.7,685.3h30.1v73.1h-1.5V695h-28.6V685.3z M509.9,706v-9.7H540v62.1h-1.5V706H509.9z M566.9,787.7h-26.6v-26.6h26.6V787.7z
		 M567.9,705.3v53.1h-0.1V697h28.7v8.3H567.9z M610.6,787.7h-28.7v-35.6h28.7V787.7z"/>
	<rect x="535.9" y="301.1" class="st0" width="2.7" height="4.4"/>
	<rect x="558.9" y="301.1" class="st0" width="2.7" height="4.4"/>
	<rect x="544.4" y="301.1" class="st0" width="2.7" height="4.4"/>
	<rect x="567.6" y="301.1" class="st0" width="2.7" height="4.4"/>
</g>
<path class="st0" d="M246.7,777.7c-0.5-0.3-48.2-34.6-28.6-97.9l0.1-0.4l-0.2-0.4c-0.3-0.7-0.9-1.4-1.8-1.5
	c-0.6-0.1-1.4,0.1-2.3,1.2l-0.1,0.1c-0.5-4.9-4.6-8.7-9.7-8.7c-5.1,0-9.2,3.9-9.7,8.8l-0.1-0.2c-0.8-1.2-1.7-1.3-2.3-1.2
	c-0.9,0.1-1.5,0.9-1.8,1.5l-0.2,0.4l0.1,0.4c19.5,63.2-28.1,97.6-28.6,97.9c-4,2.8-4.6,5.5-4.5,7.3c0.2,2,1.6,3.9,3.6,4.8
	c0.9,0.4,1.8,0.6,2.6,0.6c1,0,2-0.3,2.9-0.9c22.3-15.7,31.5-42.3,35-56.3l-0.8,45c-0.1,2.1-0.2,9.1,1.9,11.3
	c0.6,0.7,1.3,0.8,1.8,0.8c0.5,0,1.2-0.1,1.8-0.8c2.1-2.2,2-9.2,1.9-11.3l-0.8-44.9c3.5,13.9,12.7,40.5,34.9,56.1
	c0.8,0.6,1.8,0.9,2.9,0.9c0.9,0,1.8-0.2,2.6-0.6c2-0.9,3.4-2.8,3.6-4.8C251.3,783.2,250.6,780.5,246.7,777.7z M204.2,672.7
	c3.9,0,7.1,3.2,7.1,7.1c0,3.2-2.1,5.9-5.1,6.8l-0.1-7.3l-0.1-0.5c-0.3-0.7-0.9-1.1-1.5-1.1H204c-0.7,0-1.3,0.4-1.5,1.1l-0.1,0.2
	l-0.1,7.5c-2.9-0.9-5.1-3.6-5.1-6.8C197.2,675.9,200.3,672.7,204.2,672.7z M200.5,723.8c-0.1,0.4-5.7,42.3-35.7,63.5
	c-0.7,0.5-1.8,0.5-2.8,0c-0.9-0.4-1.9-1.3-2-2.6c-0.1-1.5,1-3.3,3.3-4.9c0.5-0.3,44.2-31.8,32.5-89.9
	C198.5,698.6,201.5,711.5,200.5,723.8z M197.7,687c1.3,1.1,2.8,2,4.5,2.4l-0.3,14C200.8,696.9,199.1,691.3,197.7,687z M204.2,787.5
	c-0.7-1.1-1.1-5.2-1-9.2l1-53.9l1,53.9C205.4,782.4,204.9,786.4,204.2,787.5z M206.3,689.3c1.7-0.4,3.2-1.2,4.5-2.3
	c-1.4,4.3-3.1,9.9-4.2,16.2L206.3,689.3z M246.4,787.3c-1,0.5-2.1,0.5-2.8,0c-30-21.2-35.6-63.1-35.7-63.4c-1-12.3,2-25.3,4.7-33.9
	c-11.8,58.1,32,89.5,32.5,89.9c2.3,1.6,3.5,3.3,3.3,4.9C248.3,786,247.3,786.9,246.4,787.3z"/>
<g>
	<path class="st1" d="M725.1,646v-14.8h-1.2v-5.1l-7.5-7.7l1.7-11.7l-5.3-0.8c-3.6-0.6-6.7-1.4-9.3-2.6l-6.7-17.7l-1.8-13.2h-20.3
		v13.7h-8.9v-13.7H653v13.7h-18.4v-13.7h-12.8v13.7h-18.4v-13.7h-12.8v13.7h-8.9v-13.7h-20.3v22.8c-0.4,1.2-1,2.2-1.8,3.2v-11.5
		l-6.5,16.2c-2.7,1.2-5.9,2.1-9.6,2.7l-5.3,0.8l1.7,11.4l-7.6,8v5.1h-1.2V646h6.3v2.9H537v14.8h3.8v3.3h-0.6v14.8h4.3v3.3h-0.9v14.8
		h4.5v3.3h-1.2V718h4.2v3.3h-0.8v14.8h4.3v3.3h-1v14.8h3.9v3.3h-0.8v14.8h11.5v9.4h0.3v12.4h119.1v-12.4h0.3v-9.4h11.5v-14.8h-0.8
		v-3.3h3.9v-14.8h-1v-3.3h4.3v-14.8h-0.8V718h4.2v-14.8h-1.2v-3.3h4.5v-14.8h-0.9v-3.3h4.3v-14.8h-0.6v-3.3h3.8V649h-0.7V646H725.1z
		 M695,626.1v-5.3h4l2.6,5.3H695z"/>
	<path class="st0" d="M719.7,642.2v-5.4h-1v-4.6h-28.8v-15.8h12.3v-0.2l0.5,0.9l0.6-1.1c2.1-3.7,8.5-2.9,8.5-2.9l0.2-1.3
		c-15.6-2.5-20.6-9.5-22.1-14.3v-18.9h-2.7v18.9c-0.2,1.3-0.5,2.7-0.7,4c-3.1-4.2-3.9-8.2-4-8.8v-14.1h-2.7v14
		c-0.7,2.1-2.3,5.9-4.4,9v-9.5h-14.6v-13.5h-2.7v13.5h-28.5v-13.5h-2.7v13.5h-28.5v-13.5h-2.7v13.5h-14.6v9.5c-2-3.1-3.6-6.9-4.4-9
		v-14H574v14.1c-0.1,0.6-0.9,4.6-4,8.8c-0.3-1.3-0.5-2.7-0.7-4v-18.9h-2.7v18.7c-1.5,4.8-6.4,12-22.1,14.5l0.2,1.3
		c0.1,0,6.4-0.8,8.5,2.9l0.6,1.1l0.5-0.9v0.2h12.3v15.8h-28.8v4.6h-1v5.4H551l1.4,7.7h-9.5v4.6h-0.5v5.4h11.8l1.5,8h-9.7v4.6h-0.4
		v5.4h12l1.5,8h-9.3v4.6h-0.7v5.4H561l1.5,8h-9v4.6h-1v5.4h11.9l1.5,8h-9.4v4.6h-0.7v5.4h11.9l1.5,8H560v4.6h-0.8v5.4h11.9l1.5,8
		h-9.7v4.6h-0.6v5.4h11.6v7.5h-0.1v1.3h0.1v12.4h54.3h54.3v-12.4h0.1v-1.3h-0.1v-7.5h11.6V763h-0.6v-4.6h-9.7l1.5-8h11.9v-5.4h-0.8
		v-4.6h-9.2l1.5-8h11.9v-5.4H700v-4.6h-9.4l1.5-8H704v-5.4h-1v-4.6h-9l1.5-8h11.9v-5.4h-0.7v-4.6h-9.3l1.5-8h12v-5.4h-0.4V668h-9.7
		l1.5-8H714v-5.4h-0.5v-4.6h-9.5l1.4-7.7H719.7z M717.4,633.5v3.3h-27.4v-3.3H717.4z M574.8,763l-0.6-3.3h0.6l0.4,3.3H574.8z
		 M575.5,596.9c1.7,3.8,4.6,9.3,8.4,11.4c-1.3,0.7-2.8,1.5-4.7,2.2c-1.3,0.4-2.1,0.7-2.2,0.7l0,0c-1.9,0.7-4.7,2.2-5.9,2.9
		c-2.5-1.3-6.3-2.1-9.8-2.5C569.9,608,573.8,601.2,575.5,596.9z M597.2,596c2.5,4.2,8,12,14.9,13.1l0.2,0l0.2,0
		c7.3-1.1,13.3-9.8,15.7-13.7c2.4,3.9,8.4,12.6,15.7,13.7l0.2,0l0.2,0c6.9-1.1,12.4-8.9,14.9-13.1c1.4,3.1,3.9,8,7.1,10.9l0,0
		c0.1,0.1,0.9,1.1,2.8,2.4c-5.2-0.2-11.9,0.8-18.8,4.8c-2.2-1.3-8.9-4.6-22-4.6c-13.2,0-19.9,3.3-22,4.6c-6.9-4-13.6-5-18.8-4.8
		c1.8-1.3,2.7-2.3,2.8-2.4C593.4,604,595.9,599.1,597.2,596z M598.9,593.5h27.2c-1.9,3.3-7.5,11.7-13.8,12.9
		C606,605.2,600.7,596.7,598.9,593.5z M630.3,593.5h27.2c-1.8,3.2-7.1,11.7-13.4,12.9C637.8,605.2,632.2,596.8,630.3,593.5z
		 M681,596.9c1.7,4.3,5.6,11.1,14.2,14.8c-3.4,0.4-7.2,1.2-9.8,2.5c-1.3-0.7-4-2.2-5.9-2.9l0,0c-0.1-0.1-0.9-0.4-2.2-0.7
		c-1.9-0.7-3.4-1.5-4.7-2.2C676.4,606.2,679.3,600.7,681,596.9z M700.6,659.9l-1.5,8h-1.8l1.4-8H700.6z M695.9,668h-2.6l1.4-8h2.7
		L695.9,668z M692.5,672.6l0.6-3.3h2.6l-0.6,3.3H692.5z M645.6,769.8l0-1.4h6.5v7.5H649v-6.2H645.6z M636.8,769.8l0-1.4h7.5v1.4
		H636.8z M612.2,769.8l0-1.4h7.5v1.4H612.2z M607.5,769.8v6.2h-3.1l0-7.5h6.5v1.4H607.5z M561.3,672.6l-0.6-3.3h2.6l0.6,3.3H561.3z
		 M557.7,659.9l1.4,8h-1.8l-1.5-8H557.7z M559.1,659.9h2.7l1.4,8h-2.6L559.1,659.9z M575.1,642.2l1.1,7.7h-6.3l-1.2-7.7H575.1z
		 M595.7,616.4v15.8h-13.3v-15.8H595.7z M602.1,615h-3.7v-1.5C599.6,614,600.8,614.4,602.1,615z M687.7,642.2l-1.2,7.7h-6.3l1.1-7.7
		H687.7z M687.1,672.6l0.5-3.3h4l-0.6,3.3H687.1z M668.7,763l0.4-3.3h4.3L673,763H668.7z M583.5,763l-0.4-3.3h4.3l0.4,3.3H583.5z
		 M565.3,672.6l-0.6-3.3h4l0.5,3.3H565.3z M567.3,659.9l1.3,8h-4l-1.4-8H567.3z M575.1,659.9l1.2,8h-6.3l-1.3-8H575.1z M687.8,659.9
		l-1.3,8h-6.3l1.2-8H687.8z M679.5,672.6l0.5-3.3h6.3l-0.5,3.3H679.5z M570.7,672.6l-0.5-3.3h6.3l0.5,3.3H570.7z M595.7,659.9l0.9,8
		h-8.9l-1-8H595.7z M606.5,642.2l0.7,7.7h-9.3l-0.8-7.7H606.5z M659.4,642.2l-0.8,7.7h-9.3l0.7-7.7H659.4z M669.9,659.9l-1,8h-8.9
		l0.9-8H669.9z M669.6,672.6l0.4-3.3h8.6l-0.5,3.3H669.6z M655,744.9l0.3-3.3h6.9l-0.3,3.3H655z M594.6,744.9l-0.3-3.3h6.9l0.3,3.3
		H594.6z M596.8,678l0.8,8h-8.4l-1-8H596.8z M647.1,726.8l0.2-3.3h7.7l-0.3,3.3H647.1z M601.7,726.8l-0.3-3.3h7.7l0.2,3.3H601.7z
		 M627.6,659.9v8h-7l-0.5-8H627.6z M636.5,659.9l-0.5,8h-7v-8H636.5z M648.1,678l-0.7,8h-10.1l0.5-8H648.1z M628.9,708.8v-3.3h6.9
		l-0.2,3.3H628.9z M620.8,708.8l-0.2-3.3h6.9v3.3H620.8z M627.6,696.1v8h-7l-0.5-8H627.6z M628.9,704.1v-8h7.5l-0.5,8H628.9z
		 M628.9,690.7v-3.3h6.9l-0.2,3.3H628.9z M628.9,686.1v-8h7.5l-0.5,8H628.9z M627.6,686.1h-7l-0.5-8h7.5V686.1z M627.6,687.4v3.3
		h-6.7l-0.2-3.3H627.6z M619.5,690.7h-10l-0.3-3.3h10.1L619.5,690.7z M618.7,696.1l0.5,8h-9.6l-0.6-8H618.7z M619.3,705.5l0.2,3.3
		H610l-0.3-3.3H619.3z M618.8,714.2l0.5,8h-8.9l-0.6-8H618.8z M620.2,714.2h7.4v8h-6.9L620.2,714.2z M628.9,714.2h7.4l-0.5,8h-6.9
		V714.2z M637.6,714.2h9.1l-0.6,8h-8.9L637.6,714.2z M637,708.8l0.2-3.3h9.5l-0.3,3.3H637z M637.2,704.1l0.5-8h9.7l-0.6,8H637.2z
		 M637,690.7l0.2-3.3h10.1l-0.3,3.3H637z M628.9,672.6v-3.3h6.9l-0.2,3.3H628.9z M627.6,669.3v3.3h-6.7l-0.2-3.3H627.6z M618.7,678
		l0.5,8h-10.1l-0.7-8H618.7z M607,678l0.7,8h-8.8l-0.8-8H607z M607.8,687.4l0.3,3.3h-8.7l-0.3-3.3H607.8z M607.7,696.1l0.6,8H600
		l-0.8-8H607.7z M608.4,705.5l0.3,3.3h-8.2l-0.3-3.3H608.4z M608.4,714.2l0.6,8h-7.7l-0.7-8H608.4z M610.7,726.8l-0.2-3.3h8.9
		l0.2,3.3H610.7z M620.9,726.8l-0.2-3.3h6.9v3.3H620.9z M628.9,723.6h6.9l-0.2,3.3h-6.7V723.6z M636.9,726.8l0.2-3.3h8.9l-0.2,3.3
		H636.9z M647.5,722.2l0.6-8h7.9l-0.7,8H647.5z M647.8,708.8l0.3-3.3h8.3l-0.3,3.3H647.8z M648.1,704.1l0.6-8h8.4l-0.8,8H648.1z
		 M648.3,690.7l0.3-3.3h8.8l-0.3,3.3H648.3z M648.7,686.1l0.7-8h8.9l-0.8,8H648.7z M648.9,672.6l0.3-3.3h9.2l-0.4,3.3H648.9z
		 M647.5,672.6H637l0.2-3.3h10.6L647.5,672.6z M637.3,668l0.5-8h10.8l-0.7,8H637.3z M637,654.6l0.2-3.3h10.6l-0.3,3.3H637z
		 M635.6,654.6h-6.7v-3.3h6.9L635.6,654.6z M627.6,654.6h-6.7l-0.2-3.3h6.9V654.6z M619.5,654.6h-10.6l-0.3-3.3h10.6L619.5,654.6z
		 M618.6,659.9l0.5,8h-10.7l-0.7-8H618.6z M619.3,669.3l0.2,3.3h-10.6l-0.3-3.3H619.3z M607.6,672.6h-9.2l-0.4-3.3h9.2L607.6,672.6z
		 M597.7,687.4l0.3,3.3h-8.4l-0.4-3.3H597.7z M597.9,696.1l0.8,8h-8l-0.9-8H597.9z M598.8,705.5l0.3,3.3h-7.9l-0.4-3.3H598.8z
		 M599.2,714.2l0.7,8h-7.4l-0.9-8H599.2z M600,723.6l0.3,3.3H593l-0.4-3.3H600z M600.4,732.2l0.7,8h-6.9l-0.8-8H600.4z M602.8,744.9
		l-0.3-3.3h7.2l0.2,3.3H602.8z M602.4,740.3l-0.7-8h7.3l0.6,8H602.4z M610.4,732.2h8.5l0.4,8H611L610.4,732.2z M620.2,732.2h7.3v8
		h-6.9L620.2,732.2z M628.9,732.2h7.3l-0.4,8h-6.9V732.2z M637.6,732.2h8.5l-0.6,8h-8.3L637.6,732.2z M647.4,732.2h7.3l-0.7,8h-7.2
		L647.4,732.2z M653.9,741.6l-0.3,3.3h-7.1l0.2-3.3H653.9z M655.4,740.3l0.7-8h7l-0.8,8H655.4z M656.1,726.8l0.3-3.3h7.4l-0.4,3.3
		H656.1z M656.6,722.2l0.7-8h7.6l-0.9,8H656.6z M657.3,708.8l0.3-3.3h7.9l-0.4,3.3H657.3z M657.8,704.1l0.8-8h8.1l-0.9,8H657.8z
		 M658.4,690.7l0.3-3.3h8.4l-0.4,3.3H658.4z M658.9,686.1l0.8-8h8.6l-1,8H658.9z M668.3,672.6h-8.8l0.4-3.3h8.9L668.3,672.6z
		 M658.6,668h-9.3l0.7-8h9.4L658.6,668z M648.9,654.6l0.3-3.3h9.2l-0.4,3.3H648.9z M648,649.9h-10.7l0.5-7.7h10.8L648,649.9z
		 M635.9,649.9h-7v-7.7h7.5L635.9,649.9z M627.6,642.2v7.7h-7l-0.5-7.7H627.6z M618.7,642.2l0.5,7.7h-10.7l-0.7-7.7H618.7z
		 M607.3,651.3l0.3,3.3h-9.2l-0.4-3.3H607.3z M606.4,659.9l0.7,8h-9.3l-0.9-8H606.4z M596.7,669.3l0.4,3.3h-8.8l-0.4-3.3H596.7z
		 M586.8,672.6h-8.6l-0.5-3.3h8.6L586.8,672.6z M586.8,678l1,8h-8.2l-1.1-8H586.8z M588,687.4l0.4,3.3h-8.1l-0.5-3.3H588z
		 M588.4,696.1l0.9,8h-7.7l-1.1-8H588.4z M589.5,705.5l0.4,3.3h-7.7l-0.4-3.3H589.5z M590.2,714.2l0.9,8h-7.2l-1-8H590.2z
		 M591.3,723.6l0.4,3.3h-7.1l-0.4-3.3H591.3z M592,732.2l0.8,8h-6.7l-0.9-8H592z M592.9,741.6l0.3,3.3h-6.6l-0.4-3.3H592.9z
		 M594,750.3l0.8,8h-6.1l-0.9-8H594z M595.4,750.3h6.4l0.6,8h-6.3L595.4,750.3z M603.1,750.3h6.7l0.5,8h-6.6L603.1,750.3z
		 M611.3,744.9l-0.2-3.3h8.3l0.2,3.3H611.3z M620.9,744.9l-0.2-3.3h6.8v3.3H620.9z M628.9,741.6h6.8l-0.2,3.3h-6.7V741.6z
		 M636.9,744.9l0.2-3.3h8.3l-0.2,3.3H636.9z M653.3,750.3l-0.6,8h-6.6l0.5-8H653.3z M654.7,750.3h6.4l-0.8,8H654L654.7,750.3z
		 M662.4,750.3h6.2l-0.9,8h-6.1L662.4,750.3z M663.2,744.9l0.3-3.3h6.7l-0.4,3.3H663.2z M663.7,740.3l0.8-8h6.8l-0.9,8H663.7z
		 M664.8,726.8l0.4-3.3h7.2l-0.4,3.3H664.8z M665.3,722.2l0.9-8h7.3l-1,8H665.3z M666.6,708.8l0.4-3.3h7.7l-0.4,3.3H666.6z
		 M667.1,704.1l0.9-8h7.9l-1.1,8H667.1z M668.1,690.7l0.4-3.3h8.2l-0.5,3.3H668.1z M668.7,686.1l1-8h8.3l-1.1,8H668.7z M678.9,668
		h-8.7l1-8h8.8L678.9,668z M669.6,654.6l0.4-3.3h8.6l-0.5,3.3H669.6z M668.3,654.6h-8.8l0.4-3.3h8.9L668.3,654.6z M659.9,649.9
		l0.8-7.7h9.1l-1,7.7H659.9z M629.6,636.8v-3.3h28.5v3.3H629.6z M626.9,636.8h-28.5v-3.3h28.5V636.8z M595.7,642.2l0.8,7.7h-8.9
		l-1-7.7H595.7z M596.7,651.3l0.4,3.3h-8.8l-0.4-3.3H596.7z M586.8,654.6h-8.6l-0.5-3.3h8.6L586.8,654.6z M585.2,659.9l1,8h-8.7
		l-1.2-8H585.2z M577.1,678l1.1,8h-6l-1.2-8H577.1z M578.4,687.4l0.5,3.3H573l-0.5-3.3H578.4z M579.2,696.1l1.1,8h-5.6l-1.2-8H579.2
		z M580.4,705.5l0.4,3.3h-5.5l-0.5-3.3H580.4z M581.6,714.2l1,8h-5.2l-1.1-8H581.6z M582.7,723.6l0.4,3.3H578l-0.4-3.3H582.7z
		 M583.8,732.2l0.9,8h-4.8l-1-8H583.8z M584.9,741.6l0.4,3.3h-4.8l-0.4-3.3H584.9z M586.4,750.3l0.9,8h-4.4l-1-8H586.4z M589.2,763
		l-0.4-3.3h6.1l0.3,3.3H589.2z M596.6,763l-0.3-3.3h6.3l0.3,3.3H596.6z M604.1,763l-0.3-3.3h6.5l0.2,3.3H604.1z M612,763l-0.2-3.3
		h7.6l0.2,3.3H612z M611.7,758.4l-0.5-8h7.7l0.4,8H611.7z M620.3,750.3h7.3v8h-6.9L620.3,750.3z M628.9,750.3h7.3l-0.4,8h-6.9V750.3
		z M637.5,750.3h7.7l-0.5,8h-7.6L637.5,750.3z M644.7,759.7l-0.2,3.3h-7.5l0.2-3.3H644.7z M646,759.7h6.5l-0.3,3.3h-6.5L646,759.7z
		 M653.9,759.7h6.3l-0.3,3.3h-6.2L653.9,759.7z M661.6,759.7h6.1l-0.4,3.3h-6.1L661.6,759.7z M669.2,758.4l0.9-8h4.4l-1,8H669.2z
		 M671.2,744.9l0.4-3.3h4.8l-0.4,3.3H671.2z M671.7,740.3l0.9-8h4.9l-1,8H671.7z M673.3,726.8l0.4-3.3h5.2l-0.4,3.3H673.3z
		 M673.9,722.2l1-8h5.3l-1.1,8H673.9z M675.6,708.8l0.4-3.3h5.6l-0.5,3.3H675.6z M676.2,704.1l1.1-8h5.7l-1.2,8H676.2z M677.6,690.7
		l0.5-3.3h5.9l-0.5,3.3H677.6z M678.2,686.1l1.1-8h6.1l-1.2,8H678.2z M687.9,668l1.3-8h4.1l-1.4,8H687.9z M687.1,654.6l0.5-3.3h4
		l-0.6,3.3H687.1z M685.8,654.6h-6.2l0.5-3.3h6.3L685.8,654.6z M680,642.2l-1.1,7.7h-8.7l1-7.7H680z M660.8,636.8v-3.3H674v3.3
		H660.8z M660.8,632.2v-15.8H674v15.8H660.8z M658.1,632.2h-28.5v-15.8h19.2c0.4,0.2,0.6,0.4,0.6,0.4l0.7,0.6l0.8-0.5
		c0.3-0.2,0.6-0.3,0.8-0.5h6.3V632.2z M654.4,615c1.3-0.6,2.5-1.1,3.7-1.5v1.5H654.4z M629.6,615v-2.8c8,0.1,13.3,1.6,16.4,2.8
		H629.6z M626.9,615h-16.4c3.1-1.2,8.4-2.7,16.4-2.8V615z M604.7,616.4c0.3,0.2,0.6,0.3,0.8,0.5l0.8,0.5l0.7-0.6
		c0,0,0.2-0.2,0.6-0.4h19.2v15.8h-28.5v-15.8H604.7z M595.7,633.5v3.3h-13.3v-3.3H595.7z M585.3,642.2l1,7.7h-8.7l-1.1-7.7H585.3z
		 M576.4,651.3l0.5,3.3h-6.2l-0.5-3.3H576.4z M569.3,654.6h-4l-0.6-3.3h4L569.3,654.6z M563.9,654.6h-2.6l-0.6-3.3h2.6L563.9,654.6z
		 M569.7,678l1.2,8h-3.8l-1.3-8H569.7z M571.1,687.4l0.5,3.3h-3.8l-0.5-3.3H571.1z M572.2,696.1l1.2,8h-3.5l-1.2-8H572.2z
		 M573.5,705.5l0.5,3.3h-3.5l-0.5-3.3H573.5z M574.9,714.2l1.1,8h-3.3l-1.2-8H574.9z M576.2,723.6l0.4,3.3h-3.2l-0.5-3.3H576.2z
		 M577.5,732.2l1,8h-3l-1.1-8H577.5z M578.7,741.6l0.4,3.3h-3l-0.4-3.3H578.7z M580.6,750.3l1,8h-2.7l-1-8H580.6z M581.7,759.7
		l0.4,3.3h-2.6l-0.4-3.3H581.7z M582.4,768.4v7.5h-2.6l0-7.5H582.4z M583.8,768.4h4.3v7.5h-4.3L583.8,768.4z M589.4,768.4h6v7.5h-6
		L589.4,768.4z M596.8,768.4h6.2v7.5h-6.2L596.8,768.4z M620.9,763l-0.2-3.3h6.8v3.3H620.9z M628.9,759.7h6.8l-0.2,3.3h-6.7V759.7z
		 M653.5,768.4h6.2v7.5h-6.2L653.5,768.4z M661,768.4h6v7.5h-6L661,768.4z M668.4,768.4h4.3v7.5h-4.3L668.4,768.4z M674,768.4h2.6
		v7.5H674L674,768.4z M674.3,763l0.4-3.3h2.7L677,763H674.3z M674.9,758.4l1-8h2.7l-1,8H674.9z M677.3,744.9l0.4-3.3h3l-0.4,3.3
		H677.3z M677.9,740.3l1-8h3.1l-1.1,8H677.9z M679.8,726.8l0.4-3.3h3.3l-0.5,3.3H679.8z M680.5,722.2l1.1-8h3.3l-1.2,8H680.5z
		 M682.5,708.8l0.5-3.3h3.5l-0.5,3.3H682.5z M683.1,704.1l1.2-8h3.6l-1.2,8H683.1z M684.8,690.7l0.5-3.3h3.8l-0.5,3.3H684.8z
		 M685.5,686.1l1.2-8h3.9l-1.3,8H685.5z M692.5,654.6l0.6-3.3h2.6l-0.6,3.3H692.5z M693.3,649.9l1.3-7.7h2.7l-1.4,7.7H693.3z
		 M691.9,649.9h-4l1.2-7.7h4.1L691.9,649.9z M682.5,636.8v-3.3h4.7v3.3H682.5z M679.8,636.8h-4.4v-3.3h4.4V636.8z M675.4,632.2
		v-15.8h4.4v15.8H675.4z M660.8,615v-2.2c7-1.6,13-0.5,15.9,0.3c0.6,0.2,1.2,0.4,1.8,0.6c0.4,0.1,0.8,0.3,1.3,0.6v0.7H660.8z
		 M701.9,613.9c-0.1,0.4-0.1,0.8-0.1,1.2h-10.5C695.2,614.2,699.7,613.9,701.9,613.9z M565.1,615h-10.5c0-0.3,0-0.7-0.1-1.2
		C556.8,613.9,561.2,614.2,565.1,615z M576.7,614.3c0.5-0.2,0.9-0.4,1.3-0.6c0.7-0.2,1.3-0.4,1.9-0.6c2.9-0.8,8.8-1.9,15.8-0.3v2.2
		h-19V614.3z M581.1,616.4v15.8h-4.4v-15.8H581.1z M581.1,633.5v3.3h-4.4v-3.3H581.1z M574,636.8h-4.7v-3.3h4.7V636.8z M567.3,642.2
		l1.2,7.7h-4l-1.3-7.7H567.3z M561.9,642.2l1.3,7.7h-2.6l-1.4-7.7H561.9z M557.8,642.2l1.4,7.7h-1.8l-1.4-7.7H557.8z M559.4,651.3
		l0.6,3.3h-1.8l-0.6-3.3H559.4z M556.8,654.6h-2.2l-0.6-3.3h2.2L556.8,654.6z M558.2,672.6l-0.6-3.3h1.8l0.6,3.3H558.2z M564.5,678
		l1.3,8h-2.5l-1.4-8H564.5z M566,687.4l0.5,3.3h-2.4l-0.6-3.3H566z M562.7,690.7h-1.4l-0.6-3.3h1.4L562.7,690.7z M567.2,696.1l1.2,8
		h-2.3l-1.3-8H567.2z M568.6,705.5l0.5,3.3h-2.2l-0.5-3.3H568.6z M565.5,708.8h-0.8l-0.6-3.3h0.9L565.5,708.8z M570.2,714.2l1.2,8
		h-2.1l-1.2-8H570.2z M571.6,723.6l0.5,3.3h-2l-0.5-3.3H571.6z M568.6,726.8h-0.6l-0.6-3.3h0.7L568.6,726.8z M573.1,732.2l1.1,8
		h-1.5l-1.1-8H573.1z M574.4,741.6l0.4,3.3h-1.4l-0.5-3.3H574.4z M572,744.9h-0.6l-0.6-3.3h0.8L572,744.9z M576.5,750.3l1,8h-1.6
		l-1.1-8H576.5z M577.7,759.7l0.4,3.3h-1.6l-0.4-3.3H577.7z M578.4,768.4v7.5h-1.6l0-7.5H578.4z M578.4,777.3v11.1h-1.6l0-11.1
		H578.4z M579.8,777.3h2.6v11.1h-2.6L579.8,777.3z M583.8,777.3h4.3v11.1h-4.3L583.8,777.3z M589.4,777.3h6v11.1h-6L589.4,777.3z
		 M596.8,777.3h6.2v11.1h-6.2L596.8,777.3z M604.3,777.3h3.1v11.1h-3.1L604.3,777.3z M610.2,772.5h3.2v15.9h-3.2V772.5z
		 M614.7,772.5h4.3v15.9h-4.3V772.5z M620.4,772.5h4.3v15.9h-4.3V772.5z M621,769.8l0-1.4h7.2h7.2v1.4h-7.2H621z M636.1,772.5v15.9
		h-4.3v-15.9H636.1z M637.4,772.5h4.3v15.9h-4.3V772.5z M643.1,772.5h3.2v15.9h-3.2V772.5z M649,777.3h3.1v11.1H649V777.3z
		 M653.5,777.3h6.2v11.1h-6.2L653.5,777.3z M661,777.3h6v11.1h-6L661,777.3z M668.4,777.3h4.3v11.1h-4.3L668.4,777.3z M674,777.3
		h2.6v11.1H674L674,777.3z M678,777.3h1.6v11.1H678L678,777.3z M678,775.9l0-7.5h1.6v7.5H678z M681.3,763l0.4-3.3h0.6l-0.6,3.3
		H681.3z M679.9,763h-1.6l0.4-3.3h1.6L679.9,763z M678.9,758.4l1-8h1.7l-1.1,8H678.9z M684.4,744.9l0.5-3.3h0.8l-0.6,3.3H684.4z
		 M683.1,744.9h-1.4l0.4-3.3h1.5L683.1,744.9z M682.3,740.3l1.1-8h1.5l-1.1,8H682.3z M687.8,726.8l0.5-3.3h0.7l-0.6,3.3H687.8z
		 M686.4,726.8h-2l0.5-3.3h2.1L686.4,726.8z M685.1,722.2l1.2-8h2.1l-1.2,8H685.1z M689.6,708.8h-2.2l0.5-3.3h2.3L689.6,708.8z
		 M691.5,705.5h0.9l-0.6,3.3h-0.8L691.5,705.5z M688.1,704.1l1.2-8h2.3l-1.3,8H688.1z M692.4,690.7H690l0.5-3.3h2.4L692.4,690.7z
		 M694.3,687.4h1.4l-0.6,3.3h-1.4L694.3,687.4z M690.7,686.1l1.3-8h2.5l-1.4,8H690.7z M697.1,669.3h1.8l-0.6,3.3h-1.8L697.1,669.3z
		 M699.7,654.6l0.6-3.3h2.2l-0.6,3.3H699.7z M698.3,654.6h-1.8l0.6-3.3h1.8L698.3,654.6z M697.3,649.9l1.4-7.7h1.9l-1.4,7.7H697.3z
		 M687.2,632.2h-4.7v-15.8h1.4c0.5,0.3,0.9,0.5,0.9,0.5l0.7,0.4l0.7-0.4c0.3-0.2,0.6-0.3,0.9-0.5h0.2V632.2z M706.8,612.1
		c-1.3,0.3-2.5,0.9-3.5,1.8c0.1-0.3,0.3-0.7,0.5-1l-0.4-0.3l0.1-1.4c-6.1-0.8-10.5-3.2-13.6-5.9v-4.6
		C692.2,604.8,696.9,609.5,706.8,612.1z M674,603.5c-1.1,1.4-2.4,2.5-3.6,2.8c-3.9-1.2-7.7-8.8-9.3-12.8H674V603.5z M582.4,593.5
		h12.9c-1.6,4-5.4,11.6-9.3,12.8c-1.2-0.4-2.5-1.4-3.6-2.8V593.5z M549.6,612.1c9.9-2.6,14.7-7.3,16.9-11.4v4.6
		c-3.1,2.7-7.4,5-13.6,5.9l0.1,1.4l-0.4,0.3c0.3,0.4,0.4,0.7,0.5,1C552.2,613,550.9,612.4,549.6,612.1z M569.2,616.4h0.2
		c0.3,0.1,0.6,0.3,0.9,0.5l0.7,0.4l0.7-0.4c0,0,0.4-0.2,0.9-0.5h1.4v15.8h-4.7V616.4z M539.1,633.5h27.4v3.3h-27.4V633.5z
		 M552.3,642.2h2.2l1.4,7.7h-2.2L552.3,642.2z M544.3,654.6v-3.3h8.4l0.6,3.3H544.3z M547.4,672.6v-3.3h8.6l0.6,3.3H547.4z M559,678
		h1.6l1.4,8h-1.4L559,678z M551.2,690.7v-3.3h8.2l0.6,3.3H551.2z M562.3,696.1h1.1l1.3,8h-0.9L562.3,696.1z M554.8,708.8v-3.3h7.9
		l0.6,3.3H554.8z M565.7,714.2h1l1.2,8h-0.7L565.7,714.2z M557.8,726.8v-3.3h8.3l0.6,3.3H557.8z M569.1,732.2h1.2l1.1,8h-0.8
		L569.1,732.2z M561.3,744.9v-3.3h8.1l0.6,3.3H561.3z M572.4,750.3h1.1l1.1,8h-0.6L572.4,750.3z M564.2,759.7h8.6l0.6,3.3h-9.2
		V759.7z M575.3,768.4h0.2v7.5h-0.2V768.4z M575.3,777.3h0.2v11.1h-0.2V777.3z M626.1,788.4v-15.9h2.2h2.2v15.9h-2.2H626.1z
		 M681.2,788.4H681l0-11.1h0.2V788.4z M681.2,775.9H681l0-7.5h0.2V775.9z M692.2,759.7v3.3H683l0.6-3.3H692.2z M682.5,758.4h-0.6
		l1.1-8h1.1L682.5,758.4z M695.1,741.6v3.3h-8.7l0.6-3.3H695.1z M685.9,740.3h-0.8l1.1-8h1.2L685.9,740.3z M698.6,723.6v3.3h-8.9
		l0.6-3.3H698.6z M689.3,722.2h-0.7l1.2-8h1L689.3,722.2z M701.6,705.5v3.3h-8.5l0.6-3.3H701.6z M692.6,704.1h-0.9l1.3-8h1.1
		L692.6,704.1z M705.3,687.4v3.3h-8.8l0.6-3.3H705.3z M696,686.1h-1.4l1.4-8h1.6L696,686.1z M709,669.3v3.3h-9.2l0.6-3.3H709z
		 M712.2,651.3v3.3h-9l0.6-3.3H712.2z M702.7,649.9h-2.2l1.4-7.7h2.2L702.7,649.9z"/>
</g>
<g>
	<path class="st1" d="M1089.1,780.9l0-51l-0.1-10.8h-0.8c-0.6-2.4-1.5-5.3-3-8.2v-22.4h-2.2l-1.5-3.8v-68.2l2-2.7h3.3v-20.2h-0.3
		v-13.8h-5.4l-0.7-0.3l0-6.5c0.2-2.3-0.5-5.6-2.8-8.2c-1.3-1.4-2.8-2.5-4.7-3.2v-9.8h-12.1v9.8c-1.9,0.7-3.4,1.8-4.7,3.2
		c-2.4,2.7-2.9,5.9-2.8,8.1v6.6l-0.7,0.3h-5.4v13.8h-0.3v20.2h3.3l2,2.7V684l-1.8,4.5h-2.2V709c-2.3,3.5-3.5,7.1-4.2,10.1
		c-1.1,0-2.1,0-3,0l-11.1,0v-31.2h-59.7c-2.2-14.3-11.1-47.4-46.9-51.4c-0.1-0.5-0.3-1-0.5-1.4c0.2-0.7,0.3-1.3,0.3-2.1
		c0-1.1-0.2-2.2-0.7-3.1c0.2-0.7,0.3-1.3,0.3-2.1c0-4-3.3-7.2-7.3-7.2c-4,0-7.3,3.2-7.3,7.2c0,0.7,0.1,1.4,0.3,2.1
		c-0.4,0.9-0.7,2-0.7,3.1c0,0.7,0.1,1.4,0.3,2c-0.2,0.5-0.4,0.9-0.6,1.4c-36,3.9-45.1,37-47.3,51.4h-59.5l0,31.2h-14.1
		c-0.6-2.8-1.8-6.3-3.9-9.6v-20.9h-2.2l-1.8-4.5v-67.5l2-2.7h3.3v-20.2h-0.3v-13.8h-6.1l0-6.8c0.2-2.3-0.5-5.6-2.8-8.2
		c-1.3-1.4-2.8-2.5-4.7-3.2v-9.8h-12.1v9.8c-1.9,0.7-3.4,1.8-4.7,3.2c-2.4,2.7-3,5.9-2.8,8.1v6.6l-0.7,0.3h-5.4v13.8h-0.3v20.2h3.3
		l2,2.7v68.2l-1.5,3.8h-2.2v21.8c-1.7,3-2.8,6.2-3.3,8.8h-0.8l0,61.8h-7.7v13.5h363v-13.5H1089.1z"/>
	<g>
		<rect x="762.6" y="628" class="st0" width="2.7" height="53.3"/>
		<rect x="1065.5" y="628" class="st0" width="2.7" height="53.3"/>
		<path class="st0" d="M1083.6,786.4v-56.4h0v-5.4h-0.1c-0.3-3.6-1.4-8.5-4.1-12.5h0.3v-18h-0.4l-3.3-8.2v-71l4.6-6.4h0.7V599h-4.6
			v-7.1h4.3v-6.7h-1.1l-5-2v-7.7h0l0-2.6c0-0.2,0.3-2.5-1.4-4.4c-1.3-1.5-3.3-2.2-6-2.4v-8.9h-1.3v8.9c-2.7,0.1-4.7,0.9-6,2.4
			c-1.7,1.9-1.5,4.1-1.4,4.2v2.8v1.3v6.4l-5,2h-1.1v6.7h4.3v7.1h-4.6v9.4h0.7l4.6,6.4v70.3l-3.6,8.9h-0.4v16.7
			c-3.3,4.2-4.7,9.8-5,13.8l-24.2,0v-31.2h-0.3h-14.9h-30.5h-13.3c-0.8-9.9-6.9-51.8-49.4-51.8l0-0.3c1.2-0.3,2.1-1.3,2.1-2.6
			c0-1.3-0.9-2.3-2.2-2.6v-1c0.9-0.3,1.6-1,1.6-2c0-0.9-0.7-1.7-1.6-2v-1.5c0.7-0.3,1.2-0.9,1.2-1.7c0-1-0.9-1.8-1.9-1.8
			c-1.1,0-1.9,0.8-1.9,1.8c0,0.8,0.5,1.4,1.3,1.7v1.5c-0.9,0.3-1.6,1-1.6,2c0,0.9,0.7,1.7,1.6,2v1c-1.2,0.3-2.2,1.3-2.2,2.6
			c0,1.3,1,2.3,2.2,2.6l0,0.3h0c-42.9,0-48.9,41.8-49.8,51.8h-13.1H806v5.4h0v25.8h-24.2c-0.3-3.9-1.6-9.2-4.6-13.4V694h-0.4
			l-3.6-8.9v-70.3l4.6-6.4h0.7V599h-4.6v-7.1h4.3v-6.7h-2.9l-3.2-1.3v-8.5h0l0-2.6c0-0.2,0.3-2.5-1.4-4.4c-1.3-1.5-3.4-2.2-6-2.4
			v-8.9h-1.3v8.9c-2.7,0.1-4.7,0.9-6,2.4c-1.7,1.9-1.5,4.1-1.4,4.2v2.8v1.3v6.4l-5,2h-1.1v6.7h4.3v7.1h-4.6v9.4h0.7l4.6,6.4v71
			l-3.3,8.2h-0.4v17.9c-2.7,4-3.9,9-4.1,12.6h-0.1v5.4h0v56.4h-7.7v2.7h352.2v-2.7H1083.6z M1078.2,786.4h-3.4v-28.1h0
			c-0.2-7.6-3.9-13.4-8.7-13.4c-4.7,0-8.5,5.9-8.7,13.4h0v28.1h-3.4v-56.4l24.2,0V786.4z M1066.1,747.5c3.3,0,6,5.2,6,11.4v22.3h-12
			v-22.3C1060.1,752.7,1062.8,747.5,1066.1,747.5z M1072.1,784.1h-12v-1.6h12V784.1z M1060.1,785.5h12v0.9h-12V785.5z M1042.7,780.5
			h-3.6h-3.7l0-24c0,0,0.8-3.9,3.6-3.9c2.8,0.1,3.6,3.7,3.6,3.7V780.5z M1042.7,783.2v3.1h-7.2v-3.1H1042.7z M1045.4,781.9
			L1045.4,781.9l0-25.9c-0.4-2.1-2.3-6-6.2-6.1h-0.1c-4,0.1-5.8,4-6.3,6.4v25.6v1.3v3.1h-4.4v-4.5h0l0-25.9c-0.4-2.1-2.3-6-6.2-6.1
			h-0.1c-4,0.1-5.8,4-6.3,6.4v25.6v1.3v3.1h-4.4v-4.5h0l0-25.9c-0.4-2.1-2.3-6-6.2-6.1h-0.1c-4,0.1-5.8,4-6.3,6.4v25.6v1.3v3.1h-4.4
			v-4.5h0l0-25.9c-0.4-2.1-2.3-6-6.2-6.1H988c-4,0.1-5.8,4-6.3,6.4v25.6v1.3v3.1h-4.4v-4.5h0l0-25.9c-0.4-2.1-2.3-6-6.2-6.1H971
			c-4,0.1-5.8,4-6.3,6.4v25.6v1.3v3.1h-4.4v-4.5h0l0-25.9c-0.4-2.1-2.3-6-6.2-6.1H954c-4,0.1-5.8,4-6.3,6.4v25.6v1.3v3.1h-5.3v-46.8
			h106.2v46.8h-3.2V781.9z M1025.7,780.5h-3.6h-3.7l0-24c0-0.2,0.8-3.9,3.6-3.9c2.8,0.1,3.6,3.7,3.6,3.7V780.5z M1025.7,783.2v3.1
			h-7.2v-3.1H1025.7z M1008.7,780.5h-3.6h-3.7l0-24c0-0.2,0.8-3.9,3.6-3.9c2.8,0.1,3.6,3.7,3.6,3.7V780.5z M1008.7,783.2v3.1h-7.2
			v-3.1H1008.7z M991.7,780.5h-3.6h-3.7l0-24c0,0,0.8-3.9,3.6-3.9c2.8,0.1,3.6,3.7,3.6,3.7V780.5z M991.7,783.2v3.1h-7.2v-3.1H991.7
			z M974.7,780.5h-3.6h-3.7l0-24c0-0.2,0.8-3.9,3.6-3.9c2.8,0.1,3.6,3.7,3.6,3.7V780.5z M974.7,783.2v3.1h-7.2v-3.1H974.7z
			 M957.7,780.5h-3.6h-3.7l0-24c0,0,0.8-3.9,3.6-3.9c2.8,0.1,3.6,3.7,3.6,3.7V780.5z M957.7,783.2v3.1h-7.2v-3.1H957.7z
			 M915.2,741.8c7.4,0,13.4,5.9,13.4,13.1v26.3h-26.7v-26.3C901.9,747.7,907.9,741.8,915.2,741.8z M928.6,784.1h-26.7v-1.6h26.7
			V784.1z M901.9,785.5h26.7v0.9h-26.7V785.5z M931.3,754.2L931.3,754.2c-0.4-8.4-7.5-15.1-16.1-15.1c-8.6,0-15.6,6.7-16,15.1h0
			v32.2h-5.7v-56.4H937v56.4h-5.7V754.2z M880,780.5h-3.6h-3.7l0-24c0-0.2,0.8-3.9,3.6-3.9c2.8,0.1,3.6,3.7,3.6,3.7V780.5z
			 M880,783.2v3.1h-7.2v-3.1H880z M882.7,781.9L882.7,781.9l0-25.9c-0.4-2.1-2.2-6-6.2-6.1c0,0-0.1,0-0.1,0c-4,0.1-5.8,4-6.3,6.4
			v25.6v1.3v3.1h-4.4v-4.5h0l0-25.9c-0.4-2.1-2.3-6-6.2-6.1c0,0-0.1,0-0.1,0c-4,0.1-5.8,4-6.3,6.4v25.6v1.3v3.1h-4.4v-4.5h0l0-25.9
			c-0.4-2.1-2.3-6-6.2-6.1c0,0-0.1,0-0.1,0c-4,0.1-5.8,4-6.3,6.4v25.6v1.3v3.1h-4.4v-4.5h0l0-25.9c-0.4-2.1-2.3-6-6.2-6.1
			c0,0-0.1,0-0.1,0c-4,0.1-5.8,4-6.3,6.4v25.6v1.3v3.1h-4.4v-4.5h0l0-25.9c-0.4-2.1-2.3-6-6.2-6.1c0,0-0.1,0-0.1,0
			c-4,0.1-5.8,4-6.3,6.4v25.6v1.3v3.1h-4.4v-4.5h0l0-25.9c-0.4-2.1-2.3-6-6.2-6.1c0,0-0.1,0-0.1,0c-4,0.1-5.8,4-6.3,6.4v25.6v1.3
			v3.1h-3.2v-46.8H888v46.8h-5.3V781.9z M863,780.5h-3.6h-3.7l0-24c0,0,0.8-3.9,3.6-3.9c2.8,0.1,3.6,3.7,3.6,3.7V780.5z M863,783.2
			v3.1h-7.2v-3.1H863z M846,780.5h-3.6h-3.7l0-24c0-0.2,0.8-3.9,3.6-3.9c2.8,0.1,3.6,3.7,3.6,3.7V780.5z M846,783.2v3.1h-7.2v-3.1
			H846z M829,780.5h-3.6h-3.7l0-24c0,0,0.8-3.9,3.6-3.9c2.8,0.1,3.6,3.7,3.6,3.7l0,0V780.5z M829,783.2v3.1h-7.2v-3.1H829z
			 M812,780.5h-3.6h-3.7l0-24c0-0.2,0.8-3.9,3.6-3.9c2.8,0.1,3.6,3.7,3.6,3.7c0,0,0,0,0,0V780.5z M812,783.2v3.1h-7.2v-3.1H812z
			 M795,780.5h-3.6h-3.7l0-24c0-0.2,0.8-3.9,3.6-3.9c2.8,0.1,3.6,3.7,3.6,3.7l0,0V780.5z M795,783.2v3.1h-7.2v-3.1H795z
			 M753.8,696.7h20.8v11.5c-1.8-1.5-3.9-2.6-6.5-3.2v-5.2h-7.4v5.3c-2.7,0.6-5,1.9-6.8,3.6V696.7z M766.6,704.8
			c-0.7-0.1-1.4-0.1-2.2-0.1c0,0,0,0-0.1,0c-0.9,0-1.7,0.1-2.5,0.2v-3.7h4.7V704.8z M764.4,710c9.7,0,11.7,11,12,14.5l-24.1,0
			C752.7,721,754.7,710,764.4,710z M891.2,653.1c0.2-0.2,0.5-0.3,0.7-0.4c-13,13.1-14.7,36.1-14.9,40.5h-2.5
			C874.8,687.8,877,665.4,891.2,653.1z M956,693.1h-2.5c-0.2-4.4-1.9-27.3-14.8-40.4c0.3,0.2,0.5,0.3,0.8,0.5
			C953.4,665.6,955.6,687.8,956,693.1z M897.1,650.1c0.9-0.3,1.7-0.7,2.6-1c-13.4,11.3-15.8,36.4-16.3,44h-5.1
			C878.6,688.3,880.6,661.6,897.1,650.1z M903.4,648.2c0.4-0.1,0.8-0.2,1.2-0.3c-11.3,10.6-13.3,37.4-13.7,45.2h-6.2
			C885.3,685.1,888,657.6,903.4,648.2z M907.3,647.5c0.5-0.1,1.1-0.1,1.7-0.2c-7.4,9.7-8.8,35.6-9.1,45.9h-7.5
			C892.7,684.9,894.9,656.2,907.3,647.5z M910.9,647.1c0.7,0,1.4-0.1,2.2-0.1c-1.3,4.9-2.7,16.9-3.1,46.1h-8.7
			C901.7,674.6,904.5,653.7,910.9,647.1z M914.3,647c0.1,0,0.2,0,0.3,0h1.4c0,0,0.1,0,0.1,0c1.3,4.8,2.7,18.7,3.1,46.2h-8
			C911.6,665.6,913,651.8,914.3,647z M917.4,647c0.7,0,1.4,0,2.1,0.1c6.4,6.6,9.2,27.5,9.8,46.1h-8.7
			C920.1,663.9,918.7,651.9,917.4,647z M921.5,647.3c0.6,0.1,1.1,0.1,1.7,0.2c12.4,8.7,14.6,37.5,14.9,45.7h-7.5
			C930.4,682.9,928.9,656.9,921.5,647.3z M925.8,647.9c0.4,0.1,0.8,0.2,1.2,0.3c15.4,9.4,18.2,37,18.7,45h-6.2
			C939.1,685.3,937.1,658.4,925.8,647.9z M930.7,649.2c0.9,0.3,1.8,0.6,2.7,1c16.4,11.4,18.5,38.1,18.7,43H947
			C946.6,685.6,944.1,660.5,930.7,649.2z M959.2,693.1h-1.9c-0.3-4.5-1.8-21-10.7-33.8c0.5,0.5,0.9,1,1.3,1.5
			C955.9,672,958.4,685.9,959.2,693.1z M884.3,658.7c-9.3,12.9-10.9,29.9-11.2,34.4h-1.9c0.8-7.4,3.4-22.1,12-33.3
			C883.6,659.5,884,659.1,884.3,658.7z M987.8,708.2H985v-5.4c0.1-0.2,0.5-0.8,1.4-0.8c1,0,1.3,0.6,1.4,0.8V708.2z M1007.9,710.9
			v7.7h-29.1v-7.7H1007.9z M1000.3,708.2h-2.8v-5.4c0.1-0.2,0.5-0.8,1.4-0.8c1,0,1.3,0.6,1.4,0.8V708.2z M1012,724.5l-33.3,0v-3.3
			h33.3V724.5z M973.3,724.5l-7,0v-25.8h7V724.5z M894.1,721.2v-0.5c0.9-3.2,2.8-7.3,6.5-10.5h0.3V710c3.2-2.6,7.8-4.5,14.2-4.5
			c6.5,0,11.1,2,14.3,4.6l0,0.1h0.1c0.2,0.2,0.4,0.3,0.6,0.5v0.2h0.2c4.9,4.7,6.3,11,6.6,13.6l-43.6,0c0.1-0.8,0.3-1.9,0.7-3.3
			H894.1z M869.6,710.9h23.3c-1.8,2.6-2.9,5.3-3.7,7.6h-19.6V710.9z M876.6,708.2h-2.8v-5.5c0.1-0.2,0.5-0.8,1.4-0.8
			c1,0,1.3,0.6,1.4,0.8V708.2z M888.1,708.2h-2.8v-5.5c0.1-0.2,0.5-0.8,1.4-0.8c1,0,1.3,0.6,1.4,0.8V708.2z M899.6,704.3
			c-1,0.7-2,1.4-2.8,2.2v-3.7c0.1-0.2,0.5-0.8,1.4-0.8c1,0,1.3,0.6,1.4,0.8V704.3z M933.6,706.6c-0.9-0.8-1.8-1.5-2.8-2.2v-1.7
			c0.1-0.2,0.5-0.8,1.4-0.8c1,0,1.3,0.6,1.4,0.8V706.6z M945.1,708.2h-2.8v-5.5c0.1-0.2,0.5-0.8,1.4-0.8c1,0,1.3,0.6,1.4,0.8V708.2z
			 M960.9,710.9v7.6H941c-0.8-2.4-1.9-5-3.7-7.6H960.9z M956.6,708.2h-2.8v-5.5c0.1-0.2,0.5-0.8,1.4-0.8c1,0,1.3,0.6,1.4,0.8V708.2z
			 M942.3,724.5c-0.1-0.7-0.3-1.8-0.6-3.3h19.1v3.3H942.3z M960.9,698.7v9.5H958v-5.6l0-0.2c-0.2-0.6-1-1.8-2.7-1.8c0,0,0,0-0.1,0
			c-1.7,0-2.5,1.2-2.7,1.8l0,5.8h-6v-5.6l0-0.2c-0.2-0.6-1-1.8-2.7-1.8c0,0,0,0-0.1,0c-1.7,0-2.5,1.2-2.7,1.8l0,5.8h-5.7
			c-0.1-0.1-0.2-0.2-0.3-0.3v-5.3l0-0.2c-0.2-0.6-1-1.8-2.7-1.8c0,0,0,0-0.1,0c-1.7,0-2.5,1.2-2.7,1.8l0,1.2
			c-3.7-2.1-8.3-3.5-14.3-3.5c0,0-0.1,0-0.1,0c-5.9,0-10.5,1.4-14.1,3.4v-0.9l0-0.2c-0.2-0.6-1-1.8-2.7-1.8c0,0,0,0-0.1,0
			c-1.7,0-2.5,1.2-2.7,1.8l0,5.4c-0.1,0.2-0.3,0.3-0.4,0.4h-5.5v-5.6l0-0.2c-0.2-0.6-1-1.8-2.7-1.8c0,0,0,0-0.1,0
			c-1.7,0-2.5,1.2-2.7,1.8l0,5.8h-6v-5.6l0-0.2c-0.2-0.6-1-1.8-2.7-1.8c0,0,0,0-0.1,0c-1.7,0-2.5,1.2-2.7,1.8l0,5.8h-2.9v-9.5H960.9
			z M869.6,721.2h18.9c-0.3,1.4-0.5,2.6-0.6,3.3l-18.3,0V721.2z M1066.1,704.6C1066.1,704.6,1066.1,704.6,1066.1,704.6L1066.1,704.6
			c-0.7,0-1.3,0.1-1.9,0.1v-3.6h4.7v3.7C1068,704.7,1067.1,704.6,1066.1,704.6L1066.1,704.6C1066.1,704.6,1066.1,704.6,1066.1,704.6
			z M1062.8,699.8v5.2c-2.6,0.5-4.8,1.5-6.5,3v-11.2h20.8V709c-1.8-1.8-4-3.2-6.8-3.9v-5.4H1062.8z M1060.3,615.7h13.1v69h-13.1
			V615.7z M1072.9,599h-1.5v-3.8c0,0,0.1-1.3,0.8-1.3c0.7,0,0.8,1.3,0.8,1.3V599z M1061.4,582.7v-4.6h10.9v4.6H1061.4z
			 M1061.4,572.4c0-0.1-0.1-1.3,0.8-2.3c0.9-1,2.5-1.5,4.7-1.5c2.2,0,3.8,0.5,4.7,1.5c0.9,1,0.8,2.3,0.8,2.5v2.8h-10.9L1061.4,572.4
			z M1055.3,589.2v-1.3h23.1v1.3h-1.6h-19.9H1055.3z M1074,591.9v2.2c-0.3-0.8-0.8-1.7-1.9-1.7c-1.6,0-2.1,1.7-2.1,2.6v3.9h-1.1
			v-3.9c0-0.9-0.5-2.6-2.1-2.6c-1.6,0-2.1,1.7-2.1,2.6v3.9h-1.1v-3.9c0-0.9-0.5-2.6-2.1-2.6c-1.2,0-1.7,0.9-2,1.8v-2.4H1074z
			 M1067.6,599h-1.5v-3.8c0,0,0.1-1.3,0.8-1.3c0.7,0,0.8,1.3,0.8,1.3V599z M1062.3,599h-1.5v-3.8c0,0,0.1-1.3,0.8-1.3
			c0.7,0,0.8,1.3,0.8,1.3V599z M1055,601.7h1.9h19.9h1.9v4H1055V601.7z M1077.3,608.4l-3.3,4.6h-14.4l-3.3-4.6H1077.3z
			 M1059.5,687.4h14.2l2.6,6.6h-19.5L1059.5,687.4z M1066.1,710c9.7,0,11.7,11,12,14.5l-24.1,0C1054.4,721,1056.3,710,1066.1,710z
			 M1035.6,729.9l13,0v4.3H942.4v-4.3h18.5h17.8h34.6h11.1H1035.6z M1014.7,724.5v-6h-4.1v-19.8h8.5v25.8H1014.7z M1007.9,698.7v9.4
			h-6.3v-5.6l0-0.2c0-0.1-0.6-1.8-2.7-1.8h-0.1c-1.7,0-2.5,1.2-2.7,1.8l0,5.8h-6.9v-5.6l0-0.2c-0.2-0.6-1-1.8-2.7-1.8h0
			c-2.1,0-2.7,1.8-2.7,1.8l0,5.8h-4.9v-9.4H1007.9z M915.8,627.8c-0.3,0.2-0.7,0.1-0.9-0.3c0.1-0.1,0.2-0.1,0.3-0.1
			C915.6,627.5,915.8,627.7,915.8,627.8z M915.3,632.3c0.5,0,0.9,0.3,0.9,0.8c0,0.4-0.4,0.8-0.9,0.8c-0.5,0-0.9-0.3-0.9-0.8
			C914.4,632.7,914.8,632.3,915.3,632.3z M913.8,638.6c0-0.8,0.7-1.4,1.5-1.4c0.8,0,1.5,0.6,1.5,1.4c0,0.8-0.7,1.4-1.5,1.4
			C914.5,640,913.8,639.4,913.8,638.6z M864.2,698.7v25.8l-7,0v-25.8H864.2z M822.6,710.9h29.1v7.6h-29.1V710.9z M833,708.2h-2.8
			v-5.5c0.1-0.2,0.5-0.8,1.4-0.8c1,0,1.3,0.6,1.4,0.8V708.2z M845.5,708.2h-2.8v-5.5c0.1-0.2,0.5-0.8,1.4-0.8c1,0,1.3,0.6,1.4,0.8
			V708.2z M851.7,721.2v3.3l-33.3,0v-3.3H851.7z M851.7,708.2h-4.9v-5.6l0-0.2c0-0.1-0.6-1.8-2.7-1.8c0,0,0,0-0.1,0
			c-1.7,0-2.5,1.2-2.7,1.8l0,5.8h-6.9v-5.6l0-0.2c0-0.1-0.6-1.8-2.7-1.8c0,0,0,0-0.1,0c-2.1,0-2.7,1.8-2.7,1.8l0,5.8h-6.3v-9.5h29.1
			V708.2z M811.4,698.7h8.5v19.8h-4.1v6h-4.4V698.7z M817.1,729.9h34.6h17.8H888v4.3H781.9v-4.3H806H817.1z M757.5,684.7v-69h13.1
			v69H757.5z M770,599h-1.5v-3.8c0,0,0.1-1.3,0.8-1.3c0.7,0,0.8,1.3,0.8,1.3L770,599z M758.5,582.7v-4.6h10.9v4.6H758.5z
			 M758.5,572.4c0,0-0.1-1.3,0.8-2.3c0.9-1,2.5-1.5,4.7-1.5c2.2,0,3.8,0.5,4.7,1.5c0.9,1,0.8,2.3,0.8,2.5v2.8h-10.9L758.5,572.4z
			 M752.4,589.2v-1.3h23.1v1.3h-1.6h-19.9H752.4z M771.2,591.9v2.4c-0.2-0.8-0.8-1.8-2-1.8c-1.6,0-2.1,1.7-2.1,2.6v3.9h-1.1v-3.9
			c0-0.9-0.5-2.6-2.1-2.6c-1.6,0-2.1,1.7-2.1,2.6v3.9h-1.1v-3.9c0-0.9-0.5-2.6-2.1-2.6c-1.1,0-1.7,0.8-1.9,1.7v-2.2H771.2z
			 M763.2,599l0-3.8c0,0,0.1-1.3,0.8-1.3c0.7,0,0.8,1.3,0.8,1.3l0,3.9H763.2z M759.5,599h-1.5v-3.8c0,0,0.1-1.3,0.8-1.3
			c0.7,0,0.8,1.3,0.8,1.3V599z M752.2,601.7h1.9h19.9h1.9v4h-23.7V601.7z M774.5,608.4l-3.3,4.6h-14.4l-3.3-4.6H774.5z M757,687.4
			h14.2l2.6,6.6h-19.5L757,687.4z M752.3,729.9h24.2v56.4h-3.3v-28.1h0c-0.2-7.6-3.9-13.4-8.7-13.4c-4.7,0-8.5,5.9-8.7,13.4h0v28.1
			h-3.5V729.9z M764.5,747.5c3.3,0,6,5.2,6,11.4v22.3h-12v-22.3C758.5,752.7,761.2,747.5,764.5,747.5z M770.5,784.1h-12v-1.6h12
			V784.1z M758.5,785.5h12v0.9h-12V785.5z"/>
	</g>
</g>
<g>
	<path class="st0" d="M978.1,505.4l-0.5-0.7c0,0-1.9-2.6-4.2-2.6c0,0,0,0,0,0l0-1.3c0,0,0,0,0,0c2.2,0,4,1.7,4.8,2.6
		c1-0.9,2.9-2.6,4.7-2.6c0,0,0,0,0.1,0l0,1.3c0,0,0,0,0,0c-1.4,0-3.6,2-4.2,2.7L978.1,505.4z"/>
</g>
<g>
	<g>
		<path class="st0" d="M1247.8,481.6l-0.5-0.7c0,0-1.9-2.6-4.2-2.6c0,0,0,0,0,0l0-1.3c0,0,0,0,0,0c2.2,0,4,1.7,4.8,2.6
			c1-0.9,2.9-2.6,4.7-2.6l0,1.3c0,0,0,0,0,0c-1.4,0-3.6,2-4.2,2.7L1247.8,481.6z"/>
	</g>
	<g>
		<path class="st0" d="M1243,463.6l-0.5-0.7c0,0-1.9-2.6-4.2-2.6c0,0,0,0,0,0l0-1.3c0,0,0,0,0,0c2.2,0,4,1.7,4.8,2.6
			c1-0.9,2.9-2.6,4.7-2.6l0,1.3c0,0,0,0,0,0c-1.4,0-3.6,2-4.2,2.7L1243,463.6z"/>
	</g>
</g>
<g>
	<g>
		<path class="st0" d="M641.1,321.5l-0.5-0.7c0,0-1.9-2.6-4.2-2.6c0,0,0,0,0,0l0-1.3c0,0,0,0,0,0c2.2,0,4,1.7,4.8,2.6
			c1-0.9,2.9-2.6,4.7-2.6c0,0,0,0,0.1,0l0,1.3c0,0,0,0,0,0c-1.4,0-3.6,2-4.2,2.7L641.1,321.5z"/>
	</g>
	<g>
		<path class="st0" d="M651.9,311.6l-0.5-0.7c0,0-1.9-2.6-4.2-2.6c0,0,0,0,0,0l0-1.3c0,0,0,0,0,0c2.2,0,4,1.7,4.8,2.6
			c1-0.9,2.9-2.6,4.7-2.6c0,0,0,0,0.1,0l0,1.3c0,0,0,0,0,0c-1.4,0-3.6,2-4.2,2.7L651.9,311.6z"/>
	</g>
	<g>
		<path class="st0" d="M634.1,302.1l-0.5-0.7c0,0-1.9-2.6-4.2-2.6c0,0,0,0,0,0l0-1.3c0,0,0,0,0,0c2.2,0,4,1.7,4.8,2.6
			c1-0.9,2.9-2.6,4.7-2.6c0,0,0,0,0.1,0l0,1.3c0,0,0,0,0,0c-1.4,0-3.5,1.9-4.2,2.7L634.1,302.1z"/>
	</g>
</g>
<g>
	<g>
		<path class="st0" d="M626.9,507.8l-0.5-0.7c0,0-1.9-2.6-4.2-2.6c0,0,0,0,0,0l0-1.3c0,0,0,0,0,0c2.2,0,4,1.7,4.8,2.6
			c1-0.9,2.9-2.6,4.7-2.6c0,0,0,0,0.1,0l0,1.3c0,0,0,0,0,0c-1.4,0-3.5,1.9-4.2,2.7L626.9,507.8z"/>
	</g>
	<g>
		<path class="st0" d="M612.4,495.6l-0.5-0.7c0,0-1.9-2.6-4.2-2.6c0,0,0,0,0,0l0-1.3c0,0,0,0,0,0c2.2,0,4,1.7,4.8,2.6
			c1-0.9,2.9-2.6,4.7-2.6c0,0,0,0,0.1,0l0,1.3c0,0,0,0,0,0c-1.4,0-3.6,2-4.2,2.7L612.4,495.6z"/>
	</g>
</g>
<g>
	<g>
		<path class="st0" d="M980.4,474.9l-0.5-0.7c0,0-1.9-2.6-4.2-2.6c0,0,0,0,0,0l0-1.3c0,0,0,0,0,0c2.2,0,4,1.7,4.8,2.6
			c1-0.9,2.9-2.6,4.7-2.6c0,0,0,0,0.1,0l0,1.3c0,0,0,0,0,0c-1.4,0-3.6,2-4.2,2.7L980.4,474.9z"/>
	</g>
	<g>
		<path class="st0" d="M968.5,484.5l-0.5-0.7c0,0-2-2.7-4.2-2.6l0-1.3c0,0,0,0,0,0c2.2,0,4,1.7,4.8,2.6c1-0.9,2.9-2.6,4.7-2.6
			c0,0,0,0,0.1,0l0,1.3c0,0,0,0,0,0c-1.4,0-3.6,2-4.2,2.7L968.5,484.5z"/>
	</g>
</g>
<g>
	<g>
		<path class="st0" d="M354.1,340.3l-0.5-0.7c0,0-1.9-2.7-4.2-2.6l0-1.3c0,0,0,0,0,0c2.2,0,4,1.7,4.8,2.6c1-0.9,2.9-2.6,4.7-2.6
			c0,0,0,0,0.1,0l0,1.3c0,0,0,0,0,0c-1.4,0-3.6,2-4.2,2.7L354.1,340.3z"/>
	</g>
	<g>
		<path class="st0" d="M341.3,352.9l-0.5-0.7c0,0-1.9-2.6-4.2-2.6c0,0,0,0,0,0l0-1.3c0,0,0,0,0,0c2.2,0,4,1.7,4.8,2.6
			c1-0.9,2.9-2.6,4.7-2.6c0,0,0,0,0.1,0l0,1.3c0,0,0,0,0,0c-1.4,0-3.6,2-4.2,2.7L341.3,352.9z"/>
	</g>
</g>
<g>
	<g>
		<path class="st0" d="M181.5,532.7l-0.5-0.7c0,0-1.9-2.6-4.2-2.6c0,0,0,0,0,0l0-1.3c0,0,0,0,0,0c2.2,0,4,1.7,4.8,2.6
			c1-0.9,2.9-2.6,4.7-2.6c0,0,0,0,0.1,0l0,1.3c0,0,0,0,0,0c-1.4,0-3.6,2-4.2,2.7L181.5,532.7z"/>
	</g>
	<g>
		<path class="st0" d="M174.3,522.2l-0.5-0.7c0,0-1.9-2.6-4.2-2.6c0,0,0,0,0,0l0-1.3c0,0,0,0,0,0c2.2,0,4,1.7,4.8,2.6
			c1-0.9,2.9-2.6,4.7-2.6c0,0,0,0,0.1,0l0,1.3c0,0,0,0,0,0c-1.4,0-3.6,2-4.2,2.7L174.3,522.2z"/>
	</g>
	<g>
		<path class="st0" d="M169.6,542.3l-0.5-0.7c0,0-1.9-2.6-4.2-2.6c0,0,0,0,0,0l0-1.3c0,0,0,0,0,0c2.2,0,4,1.7,4.8,2.6
			c1-0.9,2.9-2.6,4.7-2.6c0,0,0,0,0.1,0l0,1.3c0,0,0,0,0,0c-1.4,0-3.5,1.9-4.2,2.7L169.6,542.3z"/>
	</g>
</g>
<g>
	<g>
		<path class="st0" d="M1492.5,534.4l-0.5-0.7c0,0-1.9-2.6-4.2-2.6c0,0,0,0,0,0l0-1.3c0,0,0,0,0,0c2.2,0,4,1.7,4.8,2.6
			c1-0.9,2.9-2.6,4.7-2.6l0,1.3c0,0,0,0,0,0c-1.4,0-3.6,2-4.2,2.7L1492.5,534.4z"/>
	</g>
	<g>
		<path class="st0" d="M1508.6,516.6l-0.5-0.7c0,0-1.9-2.6-4.2-2.6c0,0,0,0,0,0l0-1.3c0,0,0,0,0,0c2.2,0,4,1.7,4.8,2.6
			c1-0.9,2.9-2.6,4.7-2.6c0,0,0,0,0.1,0l0,1.3c0,0,0,0,0,0c-1.4,0-3.6,2-4.2,2.7L1508.6,516.6z"/>
	</g>
	<g>
		<path class="st0" d="M1490.8,508.8l-0.5-0.7c0,0-1.9-2.6-4.2-2.6c0,0,0,0,0,0l0-1.3c0,0,0,0,0,0c2.2,0,4,1.7,4.8,2.6
			c1-0.9,2.9-2.6,4.7-2.6c0,0,0,0,0.1,0l0,1.3c0,0,0,0,0,0c-1.4,0-3.6,2-4.2,2.7L1490.8,508.8z"/>
	</g>
</g>
<g>
	<g>
		<path class="st0" d="M1190.9,220.3c-0.8-3.6-2.5-6.2-5-7.8c-4.7-3-10.8-1.6-10.9-1.6l-0.6-2.6c0.3-0.1,7.3-1.6,12.9,1.9
			c3.2,2,5.3,5.2,6.2,9.6L1190.9,220.3z"/>
	</g>
	<g>
		<path class="st0" d="M1126.3,255.2c-5.3,0-9.4-2.7-11.3-7.3c-2.3-5.7-0.8-12.8,3.5-17c2.2-2.1,6.9-5.2,14.6-2.5
			c0.5-4.4,2.3-7.7,5.2-9.8c5.2-3.7,12.6-2.5,15.6-1.8c5.2-14.2,18.1-18.7,28.8-16.7c10,1.8,20.4,9.9,20.4,23.4
			c11,0.3,13.6,7.9,14.3,10.9c11.8,1,13,8.2,13.1,10.4c0.2,5.1-3.3,9.9-7.7,10.4L1126.3,255.2z M1127.4,230.1c-2.7,0-5.1,0.9-7,2.8
			c-3.5,3.4-4.8,9.4-2.9,14c1.5,3.6,4.6,5.6,8.8,5.6h96.3c2.8-0.4,5.4-4,5.2-7.6c-0.2-4.7-4.5-7.6-11.7-7.9l-1.2-0.1l-0.1-1.2
			c0-0.4-0.8-9.5-12.6-9.5c-0.2,0-0.4,0-0.6,0l-1.5,0l0.1-1.5c0.7-12.7-8.9-20.3-18.2-22c-9.8-1.8-21.7,2.5-26.1,16.1l-0.4,1.3
			l-1.3-0.4c-0.1,0-9-2.7-14.5,1.1c-2.6,1.9-4.1,5.1-4.2,9.6l-0.1,2l-1.8-0.8C1131.5,230.6,1129.4,230.1,1127.4,230.1z"/>
	</g>
</g>
<g>
	<path class="st0" d="M1455.2,117h-42.5c-7,0-11-5.2-11.1-10c-0.1-5.3,4.2-10.9,14.1-11.6c4.8-11.8,14.6-14.6,22.3-13.2
		c7.9,1.4,13.9,7,14.6,13.2c5.3,0.1,9.7,2.3,12,6.1c2,3.3,2.2,7.2,0.4,10.4C1463.3,115.1,1459.7,117,1455.2,117z M1434.4,84.5
		c-4.8,0-12.4,1.8-16.4,12.6l-0.3,0.8l-0.9,0c-9.3,0.4-12.5,5-12.4,8.9c0.1,3.6,3,7.4,8.4,7.4h42.5c3.6,0,6.3-1.3,7.6-3.7
		c1.3-2.3,1.1-5.2-0.4-7.6c-2-3.3-6-5-10.9-4.8l-1.4,0.1l0-1.4c0-5.5-5.3-10.6-12.5-11.9C1436.9,84.7,1435.7,84.5,1434.4,84.5z"/>
</g>
<g>
	<path class="st0" d="M365.2,187h-42.5c-7,0-11-5.2-11.1-10c-0.1-5.3,4.2-10.9,14.1-11.6c4.8-11.8,14.6-14.6,22.3-13.2
		c7.9,1.4,13.9,7,14.6,13.2c5.3,0.1,9.7,2.3,12,6.1c2,3.3,2.2,7.2,0.4,10.4C373.4,185.2,369.7,187,365.2,187z M344.4,154.6
		c-4.8,0-12.4,1.8-16.4,12.6l-0.3,0.8l-0.9,0c-9.3,0.4-12.5,5-12.4,8.9c0.1,3.6,3,7.4,8.4,7.4h42.5c3.6,0,6.3-1.3,7.6-3.7
		c1.3-2.3,1.1-5.2-0.4-7.6c-2-3.3-6-5-10.9-4.8l-1.4,0.1l0-1.4c0-5.5-5.3-10.6-12.5-11.9C346.9,154.7,345.8,154.6,344.4,154.6z"/>
</g>
<g>
	<path class="st0" d="M157.5,255.6H115c-6.1,0-9.7-3.8-10.1-7.6c-0.3-2.8,1.1-6.5,6.2-8.1c-0.1-4.1,1.4-10.9,8-12.9
		c4.9-1.5,9.1-0.7,11.1-0.2c3.1-6.4,10.2-7.6,15.6-5.9c5.4,1.7,10.1,6.5,9.6,12.7c5.8-0.9,11,0.8,14.2,4.7c2.7,3.2,3.3,7.3,1.8,10.7
		C170.3,251.5,166.9,255.6,157.5,255.6z M124.9,228.8c-1.5,0-3.2,0.2-5,0.7c-6.9,2.1-6.1,10.8-6,11.2l0.1,1.2l-1.2,0.3
		c-3.5,0.8-5.5,2.9-5.2,5.5c0.3,2.6,3,5.2,7.5,5.2h42.5c5.9,0,9.9-1.8,11.4-5c1.1-2.4,0.6-5.4-1.4-7.8c-2.9-3.6-8-4.8-13.4-3.4
		l-2.2,0.6l0.6-2.2c1.5-5.8-2.8-10-7.5-11.5c-4.8-1.5-10.6-0.4-12.8,5.4l-0.5,1.3l-1.3-0.5C130.4,229.7,128.2,228.8,124.9,228.8z"/>
</g>
<g>
	<g>
		<path class="st0" d="M689.9,182.6H559.5c-4,0-6.8-1.7-7.8-4.7c-1.3-3.8,0.8-9,5-12.2c6.1-4.8,14.8-4.5,23.4,0.6
			c1.4-3.6,3.7-6,6.8-7.2c5.4-2,11.5,0.4,14.4,1.8c1.6-5.2,4.2-8.3,7.6-9.3c4.2-1.3,8.6,1.1,10.8,2.6c5-13.2,14.7-15.9,20.1-16.3
			c9.3-0.7,19.3,4.1,23.6,11.1c7.2-3.4,13.3-4,18.3-1.6c5.9,2.8,8.4,8.8,9.2,11.4c5.9-1,9,1.7,10.5,3.4c2.8,3.4,3.3,8.6,1.2,13
			C700.3,179.9,695.7,182.6,689.9,182.6z M567.1,164.9c-4.3,0-7.3,1.7-8.7,2.9c-3.3,2.5-5,6.5-4.1,9.2c0.8,2.4,3.3,2.9,5.3,2.9
			h130.4c4.7,0,8.4-2.1,10.2-5.8c1.6-3.4,1.3-7.5-0.8-10.1c-1.9-2.4-5.2-3.2-9-2.2l-1.3,0.3l-0.3-1.4c0-0.1-1.8-7.9-8.1-10.9
			c-4.5-2.1-10.2-1.4-17.1,2.2l-1.2,0.6l-0.6-1.2c-3.3-6.6-13-11.5-21.7-10.8c-8.7,0.7-15.2,6.4-18.4,16.3l-0.6,2l-1.5-1.4
			c-0.1,0-5.3-4.6-9.8-3.2c-2.8,0.9-4.9,3.9-6.2,9.1l-0.5,1.8l-1.6-1c-0.1,0-7.8-4.7-13.5-2.4c-2.7,1-4.6,3.4-5.7,7.1l-0.5,1.7
			l-1.5-1C574.9,166,570.5,164.9,567.1,164.9z"/>
	</g>
	<g>
		<path class="st0" d="M653.4,156.4c-3.9-9.2-13.9-6.9-14.3-6.8l-0.7-2.6c0.1,0,12.7-3,17.4,8.4L653.4,156.4z"/>
	</g>
</g>
<g>
	<g>
		<path class="st0" d="M1570.3,333.7h-108.2c-5.8,0-10.4-2.7-12.6-7.4c-2.1-4.4-1.6-9.6,1.2-13c1.4-1.8,4.6-4.4,10.5-3.4
			c0.8-2.7,3.3-8.6,9.2-11.4c5-2.4,11.2-1.8,18.3,1.6c4.3-7,14.4-11.8,23.6-11.1c5.5,0.4,15.1,3.1,20.1,16.3
			c2.2-1.6,6.6-3.9,10.8-2.6c3.4,1,5.9,4.1,7.5,9.2c6.8-4.1,14.1-3.9,20.2,0.7c5.7,4.2,8.9,11.4,7.3,16.2
			C1577.7,330.6,1575.8,333.7,1570.3,333.7z M1458.7,312.4c-2.5,0-4.6,0.9-6,2.6c-2.1,2.6-2.5,6.7-0.8,10.1
			c1.8,3.7,5.5,5.8,10.2,5.8h108.2c2.9,0,4.8-1,5.4-3c1.2-3.7-1.7-9.7-6.4-13.2c-3.3-2.4-10.1-5.6-18.6,0.4l-1.6,1.1l-0.5-1.9
			c-1.3-5.2-3.4-8.2-6.2-9.1c-4.5-1.4-9.7,3.2-9.8,3.2l-1.5,1.4l-0.6-2c-3.2-9.8-9.7-15.6-18.4-16.3c-8.6-0.7-18.3,4.2-21.7,10.8
			l-0.6,1.2l-1.2-0.6c-6.9-3.5-12.6-4.3-17.1-2.2c-6.3,3-8.1,10.8-8.1,10.9l-0.3,1.4l-1.3-0.3
			C1460.7,312.5,1459.7,312.4,1458.7,312.4z"/>
	</g>
	<g>
		<path class="st0" d="M1520.5,307.5c-3.9-9.2-13.9-6.9-14.3-6.8l-0.7-2.6c0.1,0,12.6-3,17.4,8.4L1520.5,307.5z"/>
	</g>
</g>
<g>
	<g>
		<rect x="1228.7" y="864.9" class="st0" width="34.1" height="2.7"/>
	</g>
	<g>
		<rect x="934.6" y="864.9" class="st0" width="34.1" height="2.7"/>
	</g>
	<g>
		<rect x="1021.9" y="830.9" class="st0" width="34.1" height="2.7"/>
	</g>
	<g>
		<rect x="585.5" y="836" class="st0" width="34.1" height="2.7"/>
	</g>
	<g>
		<rect x="356.1" y="873.2" class="st0" width="34.1" height="2.7"/>
	</g>
	<g>
		<rect x="780.5" y="873.2" class="st0" width="34.1" height="2.7"/>
	</g>
	<g>
		<rect x="1364.1" y="840.6" class="st0" width="34.1" height="2.7"/>
	</g>
	<g>
		<rect x="1166.4" y="873.2" class="st0" width="66.6" height="2.7"/>
	</g>
	<g>
		<rect x="721.1" y="864.9" class="st0" width="66.6" height="2.7"/>
	</g>
	<g>
		<rect x="541.2" y="850.4" class="st0" width="66.6" height="2.7"/>
	</g>
	<g>
		<rect x="281.2" y="854.1" class="st0" width="66.6" height="2.7"/>
	</g>
	<g>
		<rect x="455.3" y="880.8" class="st0" width="66.6" height="2.7"/>
	</g>
	<g>
		<rect x="1495.9" y="880.4" class="st0" width="66.6" height="2.7"/>
	</g>
	<g>
		<rect x="1175.3" y="854.1" class="st0" width="48.9" height="2.7"/>
	</g>
	<g>
		<rect x="1038.9" y="818.6" class="st0" width="48.9" height="2.7"/>
	</g>
	<g>
		<rect x="890" y="854.1" class="st0" width="48.9" height="2.7"/>
	</g>
	<g>
		<rect x="874.1" y="880.4" class="st0" width="48.9" height="2.7"/>
	</g>
	<g>
		<rect x="578.1" y="860.6" class="st0" width="48.9" height="2.7"/>
	</g>
	<g>
		<rect x="138.5" y="873.2" class="st0" width="48.9" height="2.7"/>
	</g>
	<g>
		<rect x="1548.6" y="864.9" class="st0" width="48.9" height="2.7"/>
	</g>
</g>
<g>
	<g>
		<rect x="429.5" y="822.4" class="st0" width="34.1" height="2.7"/>
	</g>
	<g>
		<rect x="723.7" y="822.4" class="st0" width="34.1" height="2.7"/>
	</g>
	<g>
		<rect x="636.4" y="856.4" class="st0" width="34.1" height="2.7"/>
	</g>
	<g>
		<rect x="1072.7" y="851.3" class="st0" width="34.1" height="2.7"/>
	</g>
	<g>
		<rect x="1302.2" y="814.1" class="st0" width="34.1" height="2.7"/>
	</g>
	<g>
		<rect x="877.7" y="814.1" class="st0" width="34.1" height="2.7"/>
	</g>
	<g>
		<rect x="294.1" y="846.7" class="st0" width="34.1" height="2.7"/>
	</g>
	<g>
		<rect x="459.3" y="814.1" class="st0" width="66.6" height="2.7"/>
	</g>
	<g>
		<rect x="904.6" y="822.4" class="st0" width="66.6" height="2.7"/>
	</g>
	<g>
		<rect x="1084.5" y="836.9" class="st0" width="66.6" height="2.7"/>
	</g>
	<g>
		<rect x="1344.5" y="833.2" class="st0" width="66.6" height="2.7"/>
	</g>
	<g>
		<rect x="1170.5" y="806.5" class="st0" width="66.6" height="2.7"/>
	</g>
	<g>
		<rect x="129.8" y="806.9" class="st0" width="66.6" height="2.7"/>
	</g>
	<g>
		<rect x="468.2" y="833.2" class="st0" width="48.9" height="2.7"/>
	</g>
	<g>
		<rect x="604.5" y="868.7" class="st0" width="48.9" height="2.7"/>
	</g>
	<g>
		<rect x="753.4" y="833.2" class="st0" width="48.9" height="2.7"/>
	</g>
	<g>
		<rect x="769.3" y="806.9" class="st0" width="48.9" height="2.7"/>
	</g>
	<g>
		<rect x="1065.3" y="826.8" class="st0" width="48.9" height="2.7"/>
	</g>
	<g>
		<rect x="1504.9" y="814.1" class="st0" width="48.9" height="2.7"/>
	</g>
	<g>
		<rect x="94.9" y="822.4" class="st0" width="48.9" height="2.7"/>
	</g>
</g>
<g>
	<g>
		<rect x="56.1" y="785.7" class="st0" width="1553.9" height="5.4"/>
	</g>
	<g>
		<rect x="56.1" y="794.7" class="st0" width="1553.9" height="2.7"/>
	</g>
</g>
<g>
	<path class="st0" d="M486.2,787l2.7-0.3c0-0.3-0.8-7.7-5.6-11.4c-1.9-1.4-4-2.1-6.5-2c0.3-2.1,0.4-5.6-1.5-8.7
		c-1.6-2.7-4.3-4.5-7.9-5.4c0.4-2.6,1-8.4-1.9-12.1c-1.6-2.1-4-3.2-7.1-3.2l-0.1,2.7c2.2,0,3.9,0.8,5,2.2c2.9,3.8,1.2,11.1,1.2,11.2
		l-0.3,1.4l1.4,0.3c3.6,0.7,6.1,2.2,7.5,4.5c2.2,3.7,0.8,8.4,0.8,8.4l-0.7,2.1l2.2-0.4c2.5-0.4,4.6,0,6.3,1.3
		C485.5,780.4,486.2,786.9,486.2,787z"/>
</g>
<g>
	<path class="st0" d="M1514.9,786.6c-0.1-4.1-1.2-7-3.4-8.6c-3.4-2.5-8.3-1.3-8.3-1.3l-1.1,0.3l-0.5-1.1c-1.2-2.6-2.8-4.2-4.9-4.8
		c-4.1-1.2-8.6,1.7-8.7,1.7l-1.6,1l-0.4-1.9c-0.4-1.8-1.2-3.1-2.5-3.9c-2.4-1.6-5.7-0.8-5.7-0.8l-1.9,0.4l0.3-1.9
		c0.8-5.7-0.2-9.9-2.8-12.5c-4.2-4.1-11.4-3-11.4-3l-0.4-2.7c0.3-0.1,8.6-1.3,13.8,3.7c3,2.9,4.3,7.4,3.8,13.1
		c1.6-0.1,3.9,0.1,5.9,1.4c1.4,0.9,2.5,2.2,3.2,3.9c2-1,5.7-2.3,9.4-1.2c2.6,0.8,4.6,2.6,6.1,5.3c2-0.3,6.2-0.6,9.5,1.9
		c2.9,2.1,4.4,5.7,4.5,10.7L1514.9,786.6z"/>
</g>
<g>
	<g>
		<path class="st0" d="M825.9,309c-0.8-3.6-2.5-6.2-5-7.8c-4.7-3-10.8-1.6-10.9-1.6l-0.6-2.6c0.3-0.1,7.3-1.6,12.9,1.9
			c3.2,2,5.3,5.2,6.2,9.6L825.9,309z"/>
	</g>
	<g>
		<path class="st0" d="M761.3,343.9c-5.3,0-9.4-2.7-11.3-7.3c-2.3-5.7-0.8-12.8,3.5-17c2.2-2.1,6.9-5.2,14.6-2.5
			c0.5-4.4,2.3-7.7,5.2-9.8c5.2-3.7,12.6-2.5,15.6-1.8c5.2-14.2,18.1-18.7,28.8-16.7c10,1.8,20.4,9.9,20.4,23.4
			c11,0.3,13.6,7.9,14.3,10.9c11.8,1,13,8.2,13.1,10.4c0.2,5.1-3.3,9.9-7.7,10.4L761.3,343.9z M762.3,318.8c-2.7,0-5.1,0.9-7,2.8
			c-3.5,3.4-4.8,9.4-2.9,14c1.5,3.6,4.6,5.6,8.8,5.6h96.3c2.8-0.4,5.4-4,5.2-7.6c-0.2-4.7-4.5-7.6-11.7-7.9l-1.2-0.1l-0.1-1.2
			c0-0.4-0.8-9.5-12.6-9.5c-0.2,0-0.4,0-0.6,0l-1.5,0l0.1-1.5c0.7-12.7-8.9-20.3-18.2-22c-9.8-1.8-21.7,2.5-26.1,16.1l-0.4,1.3
			l-1.3-0.4c-0.1,0-9-2.7-14.5,1.1c-2.6,1.9-4.1,5.1-4.2,9.6l-0.1,2l-1.8-0.8C766.5,319.3,764.3,318.8,762.3,318.8z"/>
	</g>
</g>
</svg>
