<svg width="127" height="48" viewBox="0 0 127 48" fill="none" xmlns="http://www.w3.org/2000/svg">
<path fill-rule="evenodd" clip-rule="evenodd" d="M38.2846 19.9715C38.2846 30.5204 29.6736 39.0767 19.0036 39.2095V30.1414C19.0036 27.4456 17.9096 24.9998 16.1437 23.2338C15.921 23.015 15.6905 22.8041 15.4482 22.6048C15.3154 22.4954 15.1786 22.3899 15.0419 22.2883C14.952 22.218 14.8583 22.1516 14.7645 22.0891C14.5145 21.9133 14.2527 21.7531 13.9831 21.6046C13.8854 21.5499 13.7839 21.4952 13.6823 21.4444C13.5143 21.3546 13.3463 21.2764 13.1744 21.2022C13.1587 21.1944 13.1431 21.1866 13.1236 21.1788C13.0454 21.1436 12.9634 21.1084 12.8774 21.0772C12.8618 21.0694 12.8462 21.0615 12.8266 21.0576C12.729 21.0186 12.6313 20.9795 12.5297 20.9443C12.5024 20.9326 12.4789 20.9248 12.4516 20.917C12.3695 20.8857 12.2875 20.8584 12.2093 20.8349C12.1585 20.8193 12.1038 20.8037 12.0491 20.7881C11.9945 20.7685 11.9398 20.7529 11.8851 20.7412C11.7757 20.7099 11.6663 20.6826 11.5569 20.6552C11.4514 20.624 11.342 20.6005 11.2326 20.581C11.1271 20.5575 11.0255 20.538 10.92 20.5224C10.9122 20.5185 10.9005 20.5146 10.8888 20.5146C10.8302 20.5067 10.7677 20.495 10.7091 20.4872C10.4199 20.4403 10.1308 20.4091 9.83389 20.3934C9.7831 20.3895 9.73231 20.3856 9.68542 20.3856C9.53696 20.3778 9.38849 20.3739 9.23612 20.3739C8.86886 20.3739 8.50551 20.3934 8.14998 20.4325C8.03667 20.4442 7.92337 20.4599 7.81007 20.4755V20.4794C4.51257 20.96 1.75033 23.0854 0.390699 26.0039C0.242233 25.5468 0.113303 25.0818 0 24.6091V19.784C0 19.3503 0.0312559 18.9244 0.0820467 18.5064C0.828281 8.69202 9.00561 0.956183 19.0036 0.924927V10.1376C19.0036 10.333 19.0075 10.5244 19.0192 10.7158C19.027 10.8135 19.0348 10.9151 19.0466 11.0128C19.0583 11.1964 19.0778 11.3761 19.1091 11.5558C19.1169 11.6066 19.1208 11.6535 19.1325 11.7043C19.1442 11.8176 19.1677 11.9309 19.1911 12.0442C19.1989 12.0833 19.2068 12.1224 19.2185 12.1653C19.2419 12.306 19.2771 12.4427 19.3122 12.5795C19.3904 12.8881 19.4881 13.1968 19.5974 13.4937C19.6404 13.6187 19.6873 13.7398 19.7381 13.861C19.742 13.8688 19.7459 13.8727 19.7459 13.8805C19.7889 13.9821 19.8358 14.0876 19.8827 14.1852C19.953 14.3454 20.0272 14.5017 20.1132 14.6541C20.1522 14.7361 20.1952 14.8143 20.2421 14.8924C20.3241 15.0448 20.414 15.1932 20.5078 15.3417C20.5976 15.4863 20.6914 15.6269 20.7891 15.7637C20.793 15.7715 20.7969 15.7832 20.8086 15.791C20.8907 15.9121 20.9805 16.0293 21.0704 16.1426C21.0938 16.1739 21.1173 16.2052 21.1446 16.2364C21.2423 16.3614 21.3439 16.4786 21.4455 16.5959C21.5002 16.6623 21.5588 16.7248 21.6174 16.7873C21.6486 16.8186 21.676 16.8498 21.7111 16.885C21.7893 16.967 21.8674 17.0491 21.9495 17.1272C21.9729 17.1506 22.0002 17.178 22.0276 17.2014C22.1018 17.2718 22.1722 17.3421 22.2503 17.4085C22.4496 17.5882 22.6566 17.7601 22.8715 17.9203C22.9223 17.9633 22.977 18.0024 23.0317 18.0375C23.1137 18.1 23.1958 18.1586 23.2778 18.2133C23.3755 18.2798 23.4732 18.3462 23.5748 18.4048C23.6412 18.4517 23.7115 18.4947 23.7779 18.5337C23.86 18.5845 23.9459 18.6314 24.028 18.6744C24.1139 18.7213 24.1999 18.7681 24.2858 18.8111C24.3796 18.8658 24.4734 18.9127 24.5671 18.9557C24.6492 18.9947 24.7351 19.0338 24.8211 19.0729C24.8836 19.1002 24.9422 19.1237 25.0047 19.151C25.118 19.1979 25.2313 19.2448 25.3446 19.2839C25.4071 19.3073 25.4697 19.3307 25.5283 19.3503C25.5947 19.3776 25.6611 19.4011 25.7314 19.4206C25.8291 19.4519 25.9307 19.4831 26.0284 19.5144C26.083 19.53 26.1456 19.5495 26.2042 19.5613C26.2862 19.5847 26.3683 19.6042 26.4503 19.6238C26.4777 19.6355 26.5011 19.6394 26.5284 19.6433C26.5441 19.6511 26.5636 19.655 26.5792 19.655C26.6808 19.6785 26.7824 19.7019 26.8879 19.7214C27.0285 19.7527 27.1692 19.7761 27.3098 19.7957C27.4427 19.8152 27.5755 19.8308 27.7084 19.8465H27.7123C27.806 19.8582 27.9037 19.866 28.0014 19.8738C28.0092 19.8777 28.0209 19.8777 28.0287 19.8738C28.1264 19.8855 28.228 19.8894 28.3257 19.8934C28.4741 19.9012 28.6226 19.9051 28.7711 19.9051C29.1383 19.9051 29.5056 19.8855 29.865 19.8465C29.9744 19.8308 30.0877 19.8191 30.201 19.8035C33.3969 19.3307 36.0888 17.3147 37.4915 14.5369C38.0072 16.2599 38.2846 18.0844 38.2846 19.9715" fill="#C7BAF8"/>
<path fill-rule="evenodd" clip-rule="evenodd" d="M19.0037 10.1369V8.86365C12.8154 8.86365 7.79883 13.8802 7.79883 20.0685C7.79883 20.2056 7.8043 20.3412 7.80899 20.4772C8.27509 20.4092 8.75135 20.3732 9.23621 20.3732C11.9359 20.3732 14.3739 21.4672 16.1438 23.2332C17.9097 24.9991 19.0037 27.4449 19.0037 30.1407V31.2733C25.192 31.2733 30.2085 26.2568 30.2085 20.0685C30.2085 19.9782 30.2038 19.8892 30.2019 19.7997C29.735 19.8681 29.2572 19.9044 28.7711 19.9044C23.3756 19.9044 19.0037 15.5286 19.0037 10.1369" fill="#B8A9F5"/>
<path fill-rule="evenodd" clip-rule="evenodd" d="M38.2859 19.9713C38.2859 30.5202 29.6749 39.0765 19.0049 39.2094V38.7718C22.4118 36.9667 26.5298 33.7044 26.5298 29.1059V2.31958C31.7964 4.57 35.8558 9.04351 37.4928 14.5367C38.0085 16.2597 38.2859 18.0843 38.2859 19.9713" fill="#AD83E6"/>
<path fill-rule="evenodd" clip-rule="evenodd" d="M19.0036 0.924927V1.26093C15.7373 2.98391 11.7014 6.12122 11.4904 10.5596L11.4983 11.7512L11.5569 20.6552L11.6584 35.5487C11.6584 41.8858 6.51685 47.0274 0.175814 47.0274H0V19.784C0 19.3503 0.0312559 18.9244 0.0820467 18.5064C0.828281 8.69202 9.00561 0.956183 19.0036 0.924927" fill="#AD83E6"/>
<path fill-rule="evenodd" clip-rule="evenodd" d="M50.4003 18.7585H47.5292V25.6406H48.9696V23.504H50.3288C51.0569 23.504 51.6483 23.2862 52.103 22.8506C52.5576 22.415 52.785 21.8443 52.785 21.1384C52.785 20.4262 52.5648 19.8515 52.1244 19.4143C51.6841 18.9771 51.1094 18.7585 50.4003 18.7585ZM48.9698 22.3349V19.9408H50.019C50.4355 19.9408 50.7567 20.0441 50.9824 20.2508C51.2082 20.4574 51.321 20.7547 51.321 21.1426C51.321 21.5273 51.2074 21.8222 50.98 22.0273C50.7527 22.2324 50.4308 22.3349 50.0143 22.3349H48.9698Z" fill="white"/>
<path fill-rule="evenodd" clip-rule="evenodd" d="M59.9756 24L60.4954 25.6406H62.055L59.6656 18.7585H57.9725L55.5831 25.6406H57.0282L57.5575 24H59.9756ZM57.8678 22.8894L58.731 20.19H58.8169L59.6706 22.8894H57.8678Z" fill="white"/>
<path d="M66.9585 18.7585V23.1177C66.9585 23.5564 67.0849 23.903 67.3377 24.1574C67.5904 24.4117 67.9442 24.5389 68.3988 24.5389C68.8567 24.5389 69.212 24.4117 69.4648 24.1574C69.7175 23.903 69.8439 23.5564 69.8439 23.1177V18.7585H71.2842V23.2655C71.2842 24.0318 71.0227 24.6486 70.4997 25.116C69.9767 25.5834 69.2764 25.8171 68.3988 25.8171C67.5245 25.8171 66.8258 25.5834 66.3027 25.116C65.7797 24.6486 65.5182 24.0318 65.5182 23.2655V18.7585H66.9585Z" fill="white"/>
<path d="M75.0953 23.7282H76.488C76.5198 24.008 76.666 24.2306 76.9267 24.3959C77.1875 24.5612 77.5213 24.6439 77.9283 24.6439C78.3035 24.6439 78.6103 24.562 78.8488 24.3983C79.0872 24.2345 79.2064 24.0223 79.2064 23.7616C79.2064 23.5422 79.1142 23.3641 78.9298 23.2274C78.7454 23.0907 78.4418 22.9778 78.0189 22.8888L77.1223 22.698C75.8759 22.4373 75.2527 21.7823 75.2527 20.7331C75.2527 20.0845 75.4928 19.5638 75.9729 19.1712C76.453 18.7785 77.0905 18.5822 77.8854 18.5822C78.6421 18.5822 79.2645 18.7745 79.7525 19.1592C80.2406 19.544 80.4957 20.0431 80.518 20.6568H79.1635C79.1286 20.3833 78.995 20.164 78.7629 19.9986C78.5308 19.8333 78.2415 19.7506 77.8949 19.7506C77.5324 19.7506 77.2423 19.8285 77.0245 19.9843C76.8067 20.1401 76.6978 20.3484 76.6978 20.6091C76.6978 20.8221 76.786 20.9938 76.9625 21.1242C77.139 21.2545 77.4291 21.3626 77.8329 21.4485L78.6628 21.6249C79.3527 21.7712 79.8551 22.0001 80.1698 22.3117C80.4846 22.6233 80.642 23.0462 80.642 23.5803C80.642 24.2735 80.3932 24.8196 79.8956 25.2186C79.398 25.6176 78.7168 25.8171 77.852 25.8171C77.0317 25.8171 76.3735 25.6295 75.8775 25.2544C75.3815 24.8792 75.1208 24.3705 75.0953 23.7282Z" fill="white"/>
<path d="M89.0019 24.4101V25.6406H84.4425V18.7585H89.0019V19.989H85.8828V21.5963H88.8255V22.7361H85.8828V24.4101H89.0019Z" fill="white"/>
<path d="M94.4008 25.6406H92.9604V18.7585H94.4008V25.6406Z" fill="white"/>
<path d="M101.622 25.6406H100.182V19.989H98.1168V18.7585H103.687V19.989H101.622V25.6406Z" fill="white"/>
<path d="M108.842 25.6406H107.402V18.7585H108.842V25.6406Z" fill="white"/>
<path d="M116.531 25.6406H114.79L112.462 18.7585H114.089L115.653 24.0191H115.739L117.275 18.7585H118.825L116.531 25.6406Z" fill="white"/>
<path d="M127 24.4101V25.6406H122.441V18.7585H127V19.989H123.881V21.5963H126.824V22.7361H123.881V24.4101H127Z" fill="white"/>
</svg>
